<svg width="500" height="314" xmlns="http://www.w3.org/2000/svg" xmlns:xlink="http://www.w3.org/1999/xlink">
 <!-- <defs> -->
 <!-- </defs> -->
 <!-- <text>  
    <textPath xlink:href="#text-path" >SVG text on a linear path</textPath>  
  </text> -->
 <g>
  <title>background</title>
  <rect fill="none" id="canvas_background" height="316" width="502" y="-1" x="-1"/>
 </g>
 <g>
  <title>Layer 1</title>
  <path stroke="null" id="svg_1" fill="#fff" d="m177.91197,85.25658c-9.76517,-7.67222 -22.01222,-12.21958 -35.32626,-12.21958c-31.33668,0 -56.85138,25.27868 -57.64002,56.78375c-32.35727,12.26623 -55.39009,43.84126 -55.39009,80.82649c0,43.70134 32.12533,79.82374 73.80707,85.51378l0,0.79287l295.27464,0l0,-0.13992c41.17144,-2.42526 73.80706,-36.93859 73.80706,-79.17078c0,-40.73972 -30.36249,-74.29694 -69.44637,-78.79767c0.16237,-2.4719 0.25515,-4.99044 0.25515,-7.50898c0,-63.12674 -52.67626,-114.29043 -117.64596,-114.29043c-48.0836,0 -89.44061,28.03043 -107.69522,68.21047"/>
  <metadata id="svg_28">image/svg+xml</metadata>
  <defs>
   <path d="m0,0l122.522,0l0,122.523l-122.522,0l0,-122.523z" id="svg_75"/>
  </defs>
  <clipPath id="svg_74">
   <use x="-1.69371" y="296.292557" id="svg_77" xlink:href="#svg_75"/>
  </clipPath>
  <g stroke="null" id="svg_11">
   <g stroke="null" transform="matrix(0.3686284881913624,0,0,0.3686284881913624,-317.2279590777297,-188.75092301328732) " id="svg_5">
    <path stroke="null" id="svg_6" fill="#000000" d="m1942.471078,1171.302272c-1.53482,-4.64821 -5.55574,-7.88634 -10.75614,-8.6638c-2.45181,-0.36597 -5.26012,-0.20988 -8.5828,0.47534c-5.79163,1.19487 -10.08865,1.64952 -13.2245,1.7382c11.8363,-19.98514 21.46143,-42.77565 27.00238,-64.2288c8.95941,-34.6883 4.17168,-50.49112 -1.42307,-57.63961c-14.80662,-18.91917 -36.40935,-29.0835 -62.47228,-29.39507c-13.90204,-0.16968 -26.10786,2.57537 -32.47416,4.54888c-5.9282,-1.04529 -12.30278,-1.62942 -18.9913,-1.73761c-12.53572,-0.19983 -23.6129,2.5328 -33.0778,8.14943c-5.2412,-1.77131 -13.65018,-4.26923 -23.36222,-5.86376c-22.84253,-3.75013 -41.25206,-0.82771 -54.71778,8.68508c-16.30596,11.51823 -23.86535,31.52998 -22.46711,59.4801c0.44342,8.87427 5.40793,35.87369 13.22391,61.4802c4.49212,14.71734 9.28222,26.93971 14.23727,36.32953c7.0267,13.31496 14.54529,21.15636 22.9862,23.97177c4.73156,1.5768 13.32737,2.68002 22.36896,-4.84863c1.14579,1.38702 2.6741,2.76634 4.70378,4.04693c2.57655,1.62528 5.72777,2.95317 8.87427,3.74008c11.34145,2.83551 21.96456,2.12605 31.02744,-1.84757c0.05557,1.61168 0.09873,3.15182 0.13539,4.48148c0.0603,2.15737 0.11942,4.27218 0.19865,6.24983c0.53683,13.37467 1.44672,23.77371 4.1427,31.04931c0.14781,0.40085 0.34705,1.0104 0.55753,1.65661c1.34444,4.11846 3.59405,11.01214 9.31532,16.41179c5.92584,5.59238 13.09266,7.30812 19.65643,7.30752c3.29193,0 6.43311,-0.43159 9.18762,-1.02222c9.82082,-2.10417 20.97367,-5.31097 29.04151,-16.79845c7.62739,-10.86019 11.33554,-27.217 12.00658,-52.99082c0.08691,-0.72839 0.16732,-1.42426 0.24477,-2.08761c0.05203,-0.44756 0.10524,-0.90516 0.15904,-1.36159l1.79732,0.15786l0.46293,0.03133c10.00233,0.45584 22.23238,-1.66548 29.74329,-5.15429c5.9353,-2.75451 24.9538,-12.79468 20.47587,-26.35144"/>
    <path stroke="null" id="svg_7" fill="#336791" d="m1925.368738,1173.939132c-29.73975,6.13454 -31.7842,-3.9346 -31.7842,-3.9346c31.40049,-46.59318 44.52685,-105.73628 33.199,-120.21121c-30.90328,-39.4849 -84.39841,-20.81109 -85.29116,-20.32629l-0.28734,0.05144c-5.87558,-1.2197 -12.45117,-1.94631 -19.84147,-2.06692c-13.45685,-0.22053 -23.66434,3.52783 -31.40996,9.40165c0,0 -95.43006,-39.31345 -90.99174,49.44406c0.94418,18.88251 27.06387,142.87342 58.21842,105.42234c11.38697,-13.69453 22.38906,-25.27365 22.38906,-25.27365c5.46468,3.63012 12.00658,5.48183 18.86477,4.81671l0.5327,-0.45229c-0.16554,1.70036 -0.08987,3.36347 0.21343,5.33225c-8.02587,8.96709 -5.66747,10.54152 -21.71152,13.8441c-16.23442,3.34574 -6.69739,9.30232 -0.47061,10.85901c7.54874,1.88778 25.01291,4.56189 36.81315,-11.95691l-0.47061,1.88482c3.14472,2.51861 5.35294,16.38341 4.98283,28.95165c-0.3701,12.56883 -0.61724,21.19774 1.86058,27.9377c2.47782,6.73995 4.94737,21.90485 26.03869,17.38553c17.6238,-3.77674 26.75644,-13.56386 28.02698,-29.88933c0.90161,-11.60632 2.94193,-9.89059 3.07081,-20.26716l1.63651,-4.91248c1.88719,-15.73306 0.29975,-20.80872 11.15758,-18.44796l2.63863,0.23176c7.99158,0.3636 18.45092,-1.28532 24.5896,-4.13857c13.21859,-6.13454 21.05822,-16.37691 8.02469,-13.68565l0.00118,0"/>
    <path stroke="null" id="svg_8" fill="#FFFFFF" d="m1795.539488,1094.741712c-2.67942,-0.37306 -5.10699,-0.02779 -6.33496,0.90162c-0.69114,0.52323 -0.90458,1.12924 -0.96193,1.54664c-0.1543,1.105 0.6202,2.32647 1.09554,2.95671c1.34563,1.78373 3.31204,3.00992 5.25835,3.28011c0.28201,0.03902 0.56225,0.05794 0.84131,0.05794c3.24582,0 6.19603,-2.52689 6.45617,-4.3922c0.32517,-2.33593 -3.06609,-3.89321 -6.35448,-4.35082"/>
    <path stroke="null" id="svg_9" fill="#FFFFFF" d="m1884.323598,1094.815622l-0.00059,0c-0.25541,-1.83103 -3.51423,-2.35308 -6.60634,-1.92326c-3.08737,0.43041 -6.08192,1.82393 -5.83183,3.65909c0.20102,1.42721 2.77698,3.86365 5.8277,3.86306c0.25718,0 0.51732,-0.01715 0.77923,-0.0538c2.03617,-0.28202 3.5302,-1.57503 4.23967,-2.32056c1.08135,-1.13515 1.70627,-2.40155 1.59216,-3.22453"/>
    <path stroke="null" id="svg_10" fill="#FFFFFF" d="m1935.265238,1173.242072c-1.13397,-3.4291 -4.7836,-4.53291 -10.84778,-3.28011c-18.00514,3.71584 -24.45303,1.14166 -26.57079,-0.4174c13.99545,-21.32072 25.50836,-47.09159 31.71917,-71.13726c2.94252,-11.38993 4.5678,-21.96752 4.70023,-30.58875c0.14662,-9.46431 -1.46446,-16.4177 -4.78892,-20.66564c-13.40245,-17.1254 -33.07188,-26.31124 -56.88225,-26.5637c-16.36863,-0.18387 -30.19854,4.00555 -32.87974,5.18326c-5.64619,-1.40415 -11.80142,-2.26616 -18.50176,-2.37612c-12.2886,-0.19866 -22.90994,2.74327 -31.70439,8.73947c-3.8199,-1.4213 -13.69216,-4.8102 -25.76436,-6.75474c-20.87258,-3.3611 -37.45818,-0.8147 -49.29449,7.57063c-14.12316,10.00587 -20.64318,27.89158 -19.37973,53.15931c0.42509,8.50181 5.2684,34.65342 12.91292,59.69885c10.06204,32.9637 20.9991,51.62509 32.50786,55.46332c1.34681,0.44933 2.90055,0.76386 4.61273,0.76386c4.19829,0 9.34489,-1.89251 14.7002,-8.33035c8.89496,-10.70115 17.19989,-19.66825 20.26125,-22.92648c4.52404,2.42874 9.49328,3.78442 14.57722,3.9204c0.00886,0.13303 0.02246,0.26605 0.03429,0.39849c-1.01987,1.20964 -1.85645,2.26971 -2.56946,3.17487c-3.52192,4.47084 -4.25504,5.40142 -15.59235,7.73617c-3.22454,0.66512 -11.79079,2.43052 -11.91553,8.4344c-0.13658,6.55963 10.12412,9.31473 11.29356,9.6068c4.07412,1.01986 7.99867,1.52299 11.74171,1.52299c9.10366,-0.00059 17.11416,-2.99218 23.51652,-8.78086c-0.19747,23.38587 0.77805,46.43001 3.58578,53.45138c2.29927,5.74729 7.91767,19.79477 25.66444,19.79359c2.60316,0 5.47,-0.30271 8.623,-0.97847c18.52069,-3.97126 26.56311,-12.15675 29.67472,-30.20328c1.66489,-9.64463 4.52227,-32.67635 5.86553,-45.02998c2.8361,0.88447 6.4875,1.28946 10.43451,1.28887c8.23221,0 17.73081,-1.74884 23.68799,-4.514c6.69147,-3.10747 18.76781,-10.73426 16.57792,-17.35952l0,0zm-44.1059,-83.48083c-0.06149,3.64726 -0.56344,6.95812 -1.09554,10.41441c-0.57231,3.71703 -1.16471,7.55998 -1.3137,12.22533c-0.14722,4.54001 0.41977,9.26034 0.96842,13.82459c1.10796,9.21955 2.24488,18.71165 -2.15678,28.07782c-0.68405,-1.21496 -1.34445,-2.54049 -1.94986,-4.00849c-0.54688,-1.32612 -1.73465,-3.4563 -3.37885,-6.40473c-6.3994,-11.47566 -21.38457,-38.34916 -13.71344,-49.31518c2.28449,-3.26474 8.08322,-6.61994 22.63975,-4.81375l0,0zm-17.6439,-61.78646c21.33372,0.47121 38.20903,8.45214 50.15767,23.71991c9.16397,11.71097 -0.92704,64.99799 -30.14001,110.96861c-0.28852,-0.36656 -0.58236,-0.73666 -0.88625,-1.11623c-0.1212,-0.15194 -0.24476,-0.30625 -0.36951,-0.46234c7.54875,-12.46714 6.07246,-24.80184 4.75876,-35.73831c-0.53979,-4.48798 -1.04942,-8.72705 -0.91994,-12.70836c0.13421,-4.22134 0.69232,-7.84022 1.23152,-11.34026c0.66394,-4.31357 1.33853,-8.77613 1.15229,-14.03744c0.13894,-0.55161 0.19511,-1.20373 0.12239,-1.97764c-0.47535,-5.04551 -6.23505,-20.14359 -17.97558,-33.81092c-6.42128,-7.47425 -15.78686,-15.83948 -28.57386,-21.48153c5.50016,-1.13988 13.02171,-2.2029 21.44252,-2.01549l0,0zm-119.37818,161.01987c-5.89983,7.0935 -9.97454,5.73428 -11.31426,5.2879c-8.7306,-2.91237 -18.86004,-21.36388 -27.79107,-50.62414c-7.72789,-25.31799 -12.24425,-50.77669 -12.60135,-57.91572c-1.12865,-22.57766 4.34431,-38.31309 16.26753,-46.76877c19.40397,-13.76074 51.30642,-5.5244 64.12534,-1.34681c-0.18447,0.1815 -0.37602,0.35178 -0.55871,0.53624c-21.03516,21.24445 -20.53617,57.54088 -20.48473,59.75915c-0.00177,0.85609 0.06976,2.0681 0.1685,3.73535c0.36183,6.10439 1.03523,17.46653 -0.76386,30.33393c-1.67258,11.95692 2.01311,23.6602 10.11052,32.10879c0.83835,0.87442 1.71337,1.69563 2.61735,2.46836c-3.6047,3.8601 -11.43782,12.3956 -19.77526,22.42572l0,0zm22.47892,-29.99339c-6.52652,-6.80913 -9.49032,-16.28113 -8.13287,-25.98903c1.90019,-13.59283 1.19841,-25.43091 0.8218,-31.7907c-0.05262,-0.88979 -0.09933,-1.66962 -0.12711,-2.28508c3.07318,-2.72436 17.31399,-10.35529 27.46945,-8.02823c4.63519,1.06183 7.45829,4.2172 8.63246,9.64582c6.0766,28.10265 0.80465,39.81598 -3.43147,49.22826c-0.87323,1.93922 -1.69799,3.77201 -2.40273,5.66866l-0.5457,1.46564c-1.38228,3.70639 -2.6682,7.15204 -3.46517,10.42447c-6.93742,-0.02129 -13.68683,-2.9845 -18.81866,-8.33981l0,0zm1.0648,37.90041c-2.02553,-0.50608 -3.84769,-1.38523 -4.91662,-2.11421c0.89275,-0.42036 2.48196,-0.99148 5.23765,-1.55906c13.33743,-2.74624 15.39666,-4.68368 19.89469,-10.3949c1.03169,-1.30897 2.20054,-2.79353 3.81931,-4.6015c0.00059,-0.00118 0.00118,-0.00177 0.00177,-0.00236c2.41161,-2.69953 3.51424,-2.24192 5.51435,-1.41244c1.62113,0.67104 3.1997,2.70249 3.84,4.9385c0.30271,1.05593 0.64325,3.06077 -0.47002,4.61982c-9.39633,13.15592 -23.08789,12.98683 -32.92113,10.52615l0,0zm69.79872,64.95247c-16.316,3.49591 -22.09285,-4.82912 -25.89975,-14.34605c-2.45712,-6.14459 -3.6644,-33.85113 -2.80772,-64.44756c0.01123,-0.40735 -0.04671,-0.80052 -0.15904,-1.17003c-0.09755,-0.71361 -0.24772,-1.43549 -0.45583,-2.16211c-1.27468,-4.45192 -4.3792,-8.17604 -8.10391,-9.71972c-1.47983,-0.6131 -4.19651,-1.7382 -7.46066,-0.90339c0.69647,-2.86803 1.90375,-6.10616 3.21212,-9.6133l0.54925,-1.4757c0.61842,-1.66311 1.39352,-3.38594 2.21413,-5.20927c4.433,-9.84861 10.50428,-23.33739 3.91509,-53.81085c-2.46836,-11.41358 -10.71002,-16.98705 -23.20436,-15.69286c-7.49081,0.7751 -14.34309,3.79743 -17.76096,5.53031c-0.73489,0.37247 -1.40711,0.73194 -2.03499,1.08253c0.95364,-11.50049 4.55833,-32.99207 18.04061,-46.58963c8.4882,-8.56093 19.79358,-12.78877 33.56792,-12.56115c27.14014,0.4446 44.544,14.37266 54.36601,25.97898c8.46337,10.00173 13.04654,20.07619 14.87579,25.50954c-13.75483,-1.39825 -23.10977,1.31725 -27.85257,8.09681c-10.31686,14.74749 5.64442,43.3722 13.31555,57.1288c1.40652,2.52157 2.6209,4.70023 3.00282,5.62608c2.49793,6.05414 5.73192,10.09575 8.09327,13.04654c0.72366,0.90399 1.42603,1.78077 1.95991,2.54641c-4.16577,1.20136 -11.64889,3.97598 -10.96721,17.84668c-0.54983,6.96049 -4.46137,39.54639 -6.44789,51.05929c-2.62267,15.20983 -8.21978,20.87553 -23.95758,24.24965l0,0zm68.10428,-77.93693c-4.25977,1.97765 -11.38875,3.46103 -18.16122,3.77911c-7.48016,0.35059 -11.28765,-0.83777 -12.18335,-1.56852c-0.42095,-8.64369 2.79708,-9.54708 6.20194,-10.5031c0.53506,-0.15076 1.05711,-0.29679 1.56083,-0.47297c0.31335,0.25481 0.65626,0.50786 1.03169,0.75558c6.01215,3.9683 16.73577,4.39634 31.87406,1.27172c0.05558,-0.01182 0.11116,-0.02246 0.16614,-0.0337c-2.0415,1.90907 -5.53563,4.47143 -10.49009,6.77188l0,0z"/>
   </g>
  </g>
  <g stroke="null" id="svg_23">
   <path stroke="null" id="svg_21" fill="#00546B" d="m200.516666,261.800334c-5.754477,-0.143494 -10.214279,0.432313 -13.954809,2.014431c-1.078962,0.431407 -2.805488,0.431858 -2.949432,1.79827c0.575814,0.575814 0.647559,1.510828 1.151162,2.301885c0.86372,1.438157 2.373638,3.380839 3.74051,4.388057c1.510365,1.150711 3.021181,2.301422 4.603316,3.308635c2.805488,1.72653 5.970613,2.73328 8.703909,4.459797c1.583032,1.0063 3.164675,2.301881 4.747256,3.380843c0.791528,0.574901 1.294676,1.510361 2.301893,1.870019l0,-0.215701c-0.503619,-0.647555 -0.647563,-1.582569 -1.150711,-2.301881c-0.718862,-0.719308 -1.43862,-1.366867 -2.157929,-2.086175c-2.086184,-2.805037 -4.675532,-5.25085 -7.480982,-7.264826c-2.301422,-1.582577 -7.337038,-3.740501 -8.272081,-6.402041c0,0 -0.072195,-0.071749 -0.143944,-0.143498c1.582565,-0.143953 3.452588,-0.719304 4.96342,-1.15117c2.445838,-0.647555 4.675532,-0.503603 7.193077,-1.150711c1.150711,-0.287901 2.301889,-0.647555 3.4526,-1.007213l0,-0.6471c-1.294205,-1.295127 -2.229673,-3.021189 -3.596545,-4.244112c-3.668294,-3.165597 -7.696713,-6.258084 -11.868609,-8.847428c-2.230145,-1.438616 -5.107381,-2.374089 -7.480982,-3.596549c-0.862802,-0.432313 -2.301889,-0.647555 -2.805041,-1.366871c-1.295118,-1.582569 -2.014427,-3.66829 -2.949436,-5.53878c-2.085262,-3.956641 -4.100164,-8.343805 -5.898413,-12.515713c-1.294205,-2.805488 -2.085721,-5.610988 -3.668294,-8.200286c-7.40877,-12.228242 -15.465149,-19.637058 -27.837344,-26.902347c-2.661535,-1.510369 -5.82621,-2.157929 -9.207065,-2.948986c-1.797816,-0.072204 -3.596545,-0.215697 -5.394832,-0.287905c-1.150711,-0.503611 -2.301881,-1.870019 -3.309099,-2.517583c-4.099234,-2.589782 -14.673642,-8.19986 -17.694823,-0.791057c-1.942227,4.675523 2.877241,9.27881 4.531542,11.652883c1.223374,1.654326 2.805488,3.524341 3.668753,5.39484c0.503607,1.222001 0.6471,2.517578 1.150711,3.812246c1.151166,3.164228 2.229673,6.689462 3.740497,9.63894c0.791516,1.510369 1.654322,3.092938 2.661535,4.459338c0.575356,0.791057 1.582114,1.151166 1.79827,2.445834c-1.006758,1.438612 -1.078962,3.596545 -1.654777,5.394832c-2.589331,8.128083 -1.582118,18.198442 2.08618,24.168596c1.150711,1.79782 3.884438,5.754932 7.55276,4.244112c3.236891,-1.294672 2.517578,-5.394832 3.452592,-8.99138c0.21616,-0.86372 0.072204,-1.438612 0.503607,-2.013976c0.000376,0.071749 0,0.143953 0,0.143953c1.007213,2.013976 2.013976,3.956215 2.948986,5.970158c2.230132,3.524337 6.11414,7.193085 9.35101,9.638944c1.726984,1.294205 3.093397,3.524345 5.251313,4.315853l0,-0.21616l-0.143953,0c-0.431858,-0.647555 -1.078962,-0.93501 -1.654318,-1.438612c-1.294668,-1.294668 -2.733743,-2.877245 -3.740497,-4.315853c-3.020734,-4.028419 -5.682728,-8.487757 -8.056342,-13.091499c-1.150711,-2.229673 -2.157924,-4.675532 -3.092938,-6.905197c-0.431858,-0.863715 -0.431858,-2.157924 -1.15117,-2.589327c-1.078962,1.582114 -2.661076,2.948986 -3.452588,4.891217c-1.365958,3.092934 -1.510369,6.905193 -2.013976,10.861367c-0.287455,0.072208 -0.143957,0 -0.287909,0.143957c-2.301426,-0.575814 -3.092938,-2.948986 -3.956215,-4.96342c-2.157929,-5.106897 -2.517583,-13.307229 -0.647104,-19.205175c0.503607,-1.510824 2.661535,-6.258092 1.79827,-7.696713c-0.431403,-1.366871 -1.870478,-2.157924 -2.661535,-3.236887c-0.93501,-1.366871 -1.942223,-3.092938 -2.589327,-4.603746c-1.726526,-4.02796 -2.589786,-8.487757 -4.459797,-12.516176c-0.863265,-1.870478 -2.37363,-3.81225 -3.596549,-5.538321c-1.366413,-1.942223 -2.877237,-3.309094 -3.956215,-5.610984c-0.359199,-0.791057 -0.863265,-2.085721 -0.287905,-2.948986c0.143953,-0.575356 0.431403,-0.791057 1.007213,-0.935014c0.935014,-0.791512 3.596545,0.215701 4.531538,0.647109c2.661535,1.078503 4.891217,2.08618 7.121345,3.596545c1.006758,0.719308 2.085721,2.08618 3.380388,2.445834l1.51082,0c2.301881,0.503156 4.891217,0.143948 7.049141,0.791061c3.812701,1.22246 7.264826,3.021185 10.358252,4.963416c9.423218,5.970158 17.1912,14.458374 22.44255,24.600478c0.863265,1.653863 1.222464,3.165138 2.013976,4.891213c1.510824,3.524796 3.380843,7.121345 4.891213,10.573941c1.510365,3.380384 2.948981,6.833444 5.106902,9.63894c1.079421,1.50991 5.394827,2.301422 7.33703,3.092938c1.438616,0.647104 3.668761,1.222919 4.963416,2.013976c2.445387,1.509906 4.891225,3.236895 7.193098,4.891213c1.151158,0.862806 4.747256,2.661535 4.963416,4.099701l0.000021,-0.000008l0,0z"/>
   <path stroke="null" id="svg_22" fill="#00546B" d="m127.146332,199.292148c-1.222915,0 -2.085721,0.144412 -2.948986,0.360117c0,-0.000376 0,0.072204 0,0.143953l0.143957,0c0.575814,1.150711 1.582118,1.942227 2.301422,2.948981c0.575814,1.150711 1.078962,2.301881 1.654777,3.453051c0.071749,-0.072208 0.143498,-0.143953 0.143498,-0.143953c1.007672,-0.719767 1.510824,-1.870478 1.510824,-3.596549c-0.431862,-0.503607 -0.503611,-1.007213 -0.863265,-1.510824c-0.431403,-0.719767 -1.366871,-1.078962 -1.942227,-1.654777l0,0l0,0z"/>
  </g>

  <g stroke="null" id="svg_39">
   <g transform="matrix(0.4934812415546858,0,0,0.4934812415546858,-2572.0932936575878,-1663.3711899883842) " id="svg_27" fill-rule="evenodd" fill="none">
    <g stroke="null" id="svg_29">
     <path stroke="null" id="svg_30" fill="#8E714E" d="m5931.569792,3637.392234c-0.46106,0.09239 -0.92212,1.10775 -0.92212,1.6612c-0.09238,3.69106 -0.18476,13.47345 -0.18476,20.11737c0,0.18477 0.27629,0.55344 0.55344,0.55344c1.38404,0.09239 4.70643,0.18477 7.56689,0.18477c3.96822,0 6.27524,-0.55344 7.56776,-1.10689c3.32152,-1.66119 4.89033,-5.26073 4.89033,-9.22895c0,-8.95093 -6.27523,-12.36571 -15.59571,-12.36571c-0.64582,-0.09152 -2.49092,-0.09152 -3.87583,0.18477l0,0l0,0zm23.8093,41.25011c0,-9.1357 -6.73716,-14.21167 -18.9181,-14.21167c-0.55344,0 -4.42927,-0.09239 -5.35226,0.09238c-0.27715,0.09239 -0.64582,0.27716 -0.64582,0.55431c0,6.55153 -0.09239,16.97975 0.18476,21.03949c0.18391,1.75358 1.47643,4.24537 3.04524,4.98358c1.66033,0.92298 5.44464,1.10689 8.02795,1.10689c7.29061,0 13.65823,-4.05974 13.65823,-13.56498l0,0l0,0zm-42.63415,-46.32521c0.92212,0 3.69107,0.27629 10.7969,0.27629c6.7363,0 12.08855,-0.1839 18.64094,-0.1839c8.02796,0 19.10201,2.86046 19.10201,14.85663c0,5.90656 -4.15299,10.61299 -9.59763,12.92001c-0.27629,0.09239 -0.27629,0.27629 0,0.36868c7.75166,1.93834 14.58121,6.73716 14.58121,15.78048c0,8.85941 -5.53703,14.48796 -13.56584,17.99511c-4.8912,2.12226 -10.98167,2.86047 -17.16452,2.86047c-4.70643,0 -17.34843,-0.55344 -24.36188,-0.36868c-0.73821,-0.27715 0.64583,-3.59954 1.29166,-4.15298c1.66119,-0.09239 2.95285,-0.18477 4.70643,-0.73821c2.49179,-0.64583 2.76808,-1.38404 3.13762,-5.16749c0.18477,-3.23 0.18477,-14.67359 0.18477,-22.79393c0,-11.16644 0.09238,-18.73333 0,-22.42439c-0.09239,-2.86047 -1.10775,-3.78345 -3.13762,-4.33776c-1.56881,-0.27629 -4.15299,-0.64582 -6.27524,-0.92211c-0.46192,-0.46193 1.10689,-3.59954 1.66119,-3.96822l0,0l0,0zm-53.24713,57.39926c2.2155,1.75271 6.55239,2.49093 10.42822,2.49093c4.98358,0 9.9663,-0.92212 14.76511,-5.25987c4.8912,-4.42928 8.30511,-11.25796 8.30511,-22.14724c0,-10.42823 -3.96822,-18.9181 -12.08855,-23.90082c-4.61405,-2.86133 -10.52061,-4.0606 -17.34929,-4.0606c-2.02987,0 -3.96822,0.09238 -5.16749,0.64583c-0.27715,0.18477 -0.92298,1.01536 -0.92298,1.47642c-0.18477,1.84597 -0.18477,16.05677 -0.18477,24.36274c0,8.58226 0,20.57843 0.18477,21.96247c0,1.38491 0.64583,3.50716 2.02987,4.43014l0,0l0,0zm-20.94797,-57.39926c1.75358,0 8.48988,0.27629 11.71988,0.27629c5.81418,0 9.9663,-0.27629 20.94796,-0.27629c9.22809,0 16.97976,2.49179 22.51678,7.19736c6.7363,5.81418 10.24345,13.84299 10.24345,23.62452c0,13.93452 -6.36762,21.96334 -12.73524,26.57738c-6.36676,4.70643 -14.67273,7.47451 -26.48413,7.47451c-6.27524,0 -17.07213,-0.18477 -26.02393,-0.27716l-0.09239,0c-0.46105,-0.82973 0.73822,-4.05973 1.47643,-4.15212c2.39941,-0.27715 3.04523,-0.36954 4.24537,-0.83059c1.93748,-0.73822 2.30702,-1.75358 2.58417,-5.16749c0.27629,-6.36762 0.18391,-14.0269 0.18391,-22.70155c0,-6.18285 0.09238,-18.27227 -0.09238,-22.1481c-0.27629,-3.22914 -1.66034,-4.05973 -4.42928,-4.61404c-1.38404,-0.27629 -3.23,-0.64583 -5.81331,-0.92212c-0.36954,-0.64669 1.29165,-3.50716 1.75271,-4.0606l0,0l0,0z"/>
     <path stroke="null" id="svg_31" fill="#442D22" d="m5726.889812,3693.315074c-2.30703,-0.27716 -3.96822,-0.64583 -5.99895,-1.56881c-0.27629,-0.18477 -0.73821,-1.10689 -0.73821,-1.47643c-0.18477,-3.23 -0.18477,-12.45809 -0.18477,-18.64094c0,-4.98358 -0.82974,-9.32047 -2.95285,-12.36571c-2.49179,-3.50716 -6.09047,-5.53702 -10.70452,-5.53702c-4.0606,0 -9.50524,2.76894 -14.0269,6.64477c-0.09238,0.09152 -0.83059,0.73821 -0.73821,-0.27715c0,-1.01537 0.18477,-3.04524 0.27716,-4.42928c0.09238,-1.29252 -0.64583,-1.93834 -0.64583,-1.93834c-2.95372,1.47642 -11.25882,3.41477 -14.30406,3.69106c-2.21463,0.46192 -2.76808,2.58417 -0.46106,3.32239l0.09239,0c2.49093,0.73821 4.15212,1.56881 5.44378,2.3994c0.92298,0.73822 0.83059,1.75358 0.83059,2.58418c0.09239,6.92106 0.09239,17.53319 -0.1839,23.34737c-0.09239,2.30702 -0.73822,3.13676 -2.39941,3.50629l0.18391,-0.09238c-1.29166,0.27715 -2.30703,0.55344 -3.87584,0.73821c-0.55344,0.55345 -0.55344,3.50716 0,4.15299c1.01537,0 6.36763,-0.27716 10.79777,-0.27716c6.09046,0 9.22808,0.27716 10.79689,0.27716c0.64583,-0.73821 0.8306,-3.50716 0.46106,-4.15299c-1.75358,-0.09238 -3.04523,-0.27629 -4.2445,-0.64583c-1.6612,-0.36953 -2.12312,-1.19927 -2.2155,-3.13762c-0.18391,-4.89119 -0.18391,-15.22617 -0.18391,-22.23962c0,-1.93834 0.55344,-2.86133 1.10689,-3.41477c2.12225,-1.8451 5.53702,-3.13762 8.58226,-3.13762c2.95285,0 4.89119,0.92298 6.36762,2.12312c2.02987,1.66033 2.6757,4.05974 2.95285,5.81331c0.46106,3.96822 0.27715,11.81227 0.27715,18.64095c0,3.69106 -0.27715,4.61404 -1.66119,5.0751c-0.64583,0.27715 -2.30702,0.64669 -4.24537,0.8306c-0.64583,0.64583 -0.46106,3.50716 0,4.15298c2.67656,0 5.81418,-0.27715 10.42822,-0.27715c5.72093,0 9.41286,0.27715 10.88928,0.27715c0.46106,-0.55344 0.64583,-3.23 0.27629,-3.96821l0.00087,0l0,0zm25.56201,-35.25116c-4.8912,0 -7.93644,3.78345 -7.93644,9.68915c0,5.99808 2.6757,12.91915 10.24346,12.91915c1.29165,0 3.69106,-0.55345 4.79795,-1.8451c1.75358,-1.6612 2.95371,-4.98358 2.95371,-8.48988c0,-7.65928 -3.78431,-12.27332 -10.05868,-12.27332l0,0l0,0zm-0.64669,40.78818c-1.8451,0 -3.13762,0.55345 -3.96736,1.01537c-3.87669,2.49093 -5.62941,4.89033 -5.62941,7.75166c0,2.6757 1.01451,4.79795 3.23001,6.64391c2.67569,2.30702 6.36676,3.41478 11.07318,3.41478c9.41286,0 13.56584,-5.07597 13.56584,-10.05869c0,-3.50716 -1.75357,-5.81418 -5.35225,-7.10583c-2.58418,-1.10775 -7.29061,-1.6612 -12.92001,-1.6612l0,0l0,0zm0.64669,23.9932c-5.62941,0 -9.69001,-1.20013 -13.19631,-3.87583c-3.41477,-2.58417 -4.89119,-6.46 -4.89119,-9.1357c0,-0.73821 0.18476,-2.76895 1.84596,-4.61405c1.0145,-1.10775 3.22914,-3.23 8.48987,-6.82868c0.18391,-0.09238 0.27629,-0.18477 0.27629,-0.36953c0,-0.18477 -0.18477,-0.36954 -0.36867,-0.46106c-4.33775,-1.6612 -5.62941,-4.33776 -5.99895,-5.81418l0,-0.18477c-0.09152,-0.55345 -0.27629,-1.10689 0.55431,-1.6612c0.64583,-0.46106 1.56881,-1.0145 2.58331,-1.66033c1.56881,-0.92298 3.23,-1.93834 4.24537,-2.76894c0.18477,-0.18477 0.18477,-0.36867 0.18477,-0.55344c0,-0.18477 -0.18477,-0.36954 -0.36954,-0.46106c-6.45914,-2.12312 -9.68915,-6.92193 -9.68915,-14.11929c0,-4.70643 2.12226,-8.9518 5.9057,-11.62749c2.58418,-2.03073 9.04332,-4.52166 13.28869,-4.52166l0.27716,0c4.33689,0.09152 6.73629,1.0145 10.1502,2.21464c1.84596,0.64582 3.59954,0.92211 5.99895,0.92211c3.59868,0 5.16749,-1.10688 6.45914,-2.39854c0.09239,0.18391 0.27716,0.64583 0.36954,1.8451c0.09238,1.20014 -0.27715,2.95285 -1.20013,4.24537c-0.73822,1.0145 -2.39855,1.75358 -4.05974,1.75358l-0.46192,0c-1.6612,-0.18477 -2.39941,-0.36954 -2.39941,-0.36954l-0.36868,0.18477c-0.09238,0.18477 0,0.36867 0.09239,0.64583l0.09238,0.18477c0.18391,0.83059 0.55345,3.32152 0.55345,3.96821c0,7.5669 -3.04524,10.88842 -6.27524,13.38021c-3.13762,2.30702 -6.7363,3.78345 -10.7969,4.15299c-0.09238,0 -0.46106,0 -1.29165,0.09238c-0.46193,0 -1.10775,0.09239 -1.20014,0.09239l-0.09238,0c-0.73822,0.1839 -2.58331,1.10688 -2.58331,2.67569c0,1.38404 0.83059,3.04524 4.79794,3.32239c0.8306,0.09238 1.6612,0.09238 2.58418,0.18477c5.25987,0.36867 11.81226,0.83059 14.8575,1.8451c4.2445,1.56881 6.92106,5.35225 6.92106,9.87478c0,6.82868 -4.89119,13.1963 -13.01153,17.16365c-3.96822,1.75358 -7.93643,2.67656 -12.27332,2.67656l0,0l0,0zm52.60044,-64.32032c-1.93835,0 -3.69192,0.46106 -4.98358,1.38404c-3.59868,2.21464 -5.44464,6.64478 -5.44464,13.10392c0,12.08942 6.09047,20.57929 14.76511,20.57929c2.58418,0 4.61405,-0.73821 6.36762,-2.21464c2.6757,-2.2155 4.0606,-6.64477 4.0606,-12.82763c0,-11.99616 -5.99894,-20.02498 -14.76511,-20.02498l0,0l0,0zm1.6612,39.49653c-15.6881,0 -21.31751,-11.53511 -21.31751,-22.33201c0,-7.5669 3.04524,-13.38107 9.1357,-17.53406c4.33776,-2.6757 9.50525,-4.15212 14.11929,-4.15212c11.99617,0 20.39452,8.58226 20.39452,20.94797c0,8.39749 -3.32239,15.0414 -9.69001,19.102c-3.04523,2.02987 -8.3051,3.96822 -12.64286,3.96822l0.00087,0l0,0zm-164.44612,-39.49653c-1.93834,0 -3.69106,0.46106 -4.98358,1.38404c-3.59868,2.21464 -5.44464,6.64478 -5.44464,13.10392c0,12.08942 6.09047,20.57929 14.76511,20.57929c2.58418,0 4.61405,-0.73821 6.36763,-2.21464c2.67569,-2.2155 4.0606,-6.64477 4.0606,-12.82763c0,-11.99616 -5.90657,-20.02498 -14.76512,-20.02498l0,0l0,0zm1.6612,39.49653c-15.6881,0 -21.31751,-11.53511 -21.31751,-22.33201c0,-7.5669 3.04524,-13.38107 9.13571,-17.53406c4.33775,-2.6757 9.50524,-4.15212 14.11928,-4.15212c11.99703,0 20.39452,8.58226 20.39452,20.94797c0,8.39749 -3.32238,15.0414 -9.69001,19.102c-2.95284,2.02987 -8.21272,3.96822 -12.64199,3.96822l0,0l0,0zm-105.47805,-0.92299c-0.18476,-0.27629 -0.36953,-1.10688 -0.27715,-2.12225c0,-0.73821 0.18477,-1.20013 0.27715,-1.38404c1.93749,-0.27715 2.95285,-0.55431 4.05974,-0.8306c1.84596,-0.46192 2.58418,-1.47642 2.67656,-3.78344c0.27715,-5.53703 0.27715,-16.05764 0.18477,-23.34738l0,-0.18477c0,-0.83059 0,-1.84596 -1.01537,-2.58417c-1.47642,-0.92212 -3.23,-1.75272 -5.53702,-2.39941c-0.8306,-0.27629 -1.38404,-0.73821 -1.29166,-1.29165c0,-0.55345 0.55345,-1.19927 1.75358,-1.38404c3.04524,-0.27716 10.9808,-2.21464 14.11842,-3.59868c0.18477,0.1839 0.46193,0.73821 0.46193,1.47642l-0.09239,1.01451c-0.09238,1.01536 -0.18477,2.2155 -0.18477,3.41477c0,0.36867 0.36954,0.64583 0.73821,0.64583c0.18477,0 0.36954,-0.09239 0.55431,-0.18477c5.9057,-4.61405 11.25796,-6.27524 14.02604,-6.27524c4.52252,0 8.02882,2.12312 10.70537,6.55239c0.18391,0.27715 0.36868,0.36868 0.64583,0.36868c0.18477,0 0.46106,-0.09153 0.55345,-0.27629c5.44464,-4.15299 10.88928,-6.64478 14.48796,-6.64478c8.58225,0 13.65822,6.36762 13.65822,17.16452c0,3.04523 0,7.01345 -0.09238,10.61299c0,3.22914 -0.09239,6.18285 -0.09239,8.30511c0,0.46106 0.64583,1.93748 1.6612,2.21463c1.29165,0.64583 3.04523,0.92299 5.35225,1.29166l0.09239,0c0.18477,0.64583 -0.18477,3.04523 -0.55345,3.50716c-0.5543,0 -1.3849,0 -2.30702,-0.09239c-1.75358,-0.09238 -4.24537,-0.18477 -7.01345,-0.18477c-5.72179,0 -8.67464,0.09239 -11.53597,0.27716c-0.18391,-0.73821 -0.27629,-2.95285 0,-3.50716c1.66119,-0.27629 2.49179,-0.55344 3.50716,-0.8306c1.84596,-0.55344 2.30702,-1.38404 2.3994,-3.78344c0,-1.75272 0.36868,-16.7026 -0.18477,-20.30214c-0.55344,-3.69106 -3.32239,-8.02795 -9.41285,-8.02795c-2.30703,0 -5.9057,0.92298 -9.41286,3.59867c-0.18391,0.18477 -0.36868,0.64583 -0.36868,0.92298l0,0.09239c0.36868,1.93748 0.36868,4.15298 0.36868,7.56689l0,5.99809c0,4.15298 -0.09239,8.02881 0,10.98166c0,2.03073 1.20013,2.49179 2.2155,2.86133c0.55344,0.09152 0.92212,0.18391 1.38404,0.27629c0.8306,0.18477 1.66119,0.36954 2.95285,0.64583c0.18477,0.36954 0.18477,1.56881 -0.09238,2.58418c-0.09239,0.55344 -0.27716,0.83059 -0.36868,0.92298c-3.13762,-0.09239 -6.36762,-0.18477 -11.07405,-0.18477c-1.38404,0 -3.78345,0.09238 -5.81418,0.09238c-1.66119,0 -3.23,0.09239 -4.15212,0.09239c-0.09238,-0.18477 -0.27715,-0.8306 -0.27715,-1.84597c0,-0.83059 0.18477,-1.47642 0.36954,-1.66119c0.46105,-0.09238 0.82973,-0.18391 1.29165,-0.18391c1.10689,-0.18476 2.02987,-0.36953 2.95285,-0.5543c1.56881,-0.46106 2.12225,-1.29166 2.21464,-3.32153c0.27715,-4.61404 0.55344,-17.81034 -0.09239,-21.13273c-1.10688,-5.35226 -4.15212,-8.02882 -9.04331,-8.02882c-2.86047,0 -6.46001,1.38404 -9.41286,3.59954c-0.46106,0.36868 -0.8306,1.29166 -0.8306,2.12226l0,5.44464c0,6.64391 0,14.94988 0.09239,18.54856c0.09238,1.10688 0.46106,2.3994 2.58417,2.86046c0.46106,0.09239 1.19927,0.27716 2.12226,0.36954l1.66119,0.27629c0.18477,0.55431 0.09238,2.76895 -0.27715,3.50716c-0.92299,0 -2.02987,-0.09239 -3.32239,-0.09239c-1.93749,-0.09238 -4.42928,-0.18477 -7.19736,-0.18477c-3.23,0 -5.53702,0.09239 -7.38299,0.18477c-1.29165,-0.18477 -2.30702,-0.18477 -3.41391,-0.18477l0,0l0,0z"/>
     <g stroke="null" id="svg_32">
      <path stroke="null" id="svg_33" fill="#FFFFFF" d="m5489.909792,3719.246614l-3.78345,-1.29251c0,0 0.46192,-19.28678 -6.45914,-20.67082c-4.61405,-5.35225 0.73821,-227.01285 17.34842,-0.73821c0,0 -5.72093,2.86047 -6.7363,7.75166c-1.10775,4.79882 -0.36953,14.94988 -0.36953,14.94988l0,0l0,0z"/>
      <path stroke="null" id="svg_34" fill="#A6A385" d="m5489.909792,3719.246614l-3.78345,-1.29251c0,0 0.46192,-19.28678 -6.45914,-20.67082c-4.61405,-5.35225 0.73821,-227.01285 17.34842,-0.73821c0,0 -5.72093,2.86047 -6.7363,7.75166c-1.10775,4.79882 -0.36953,14.94988 -0.36953,14.94988l0,0l0,0z"/>
      <path stroke="null" id="svg_35" fill="#FFFFFF" d="m5491.940522,3700.605674c0,0 33.1289,-21.77856 25.37724,-67.08927c-7.47451,-32.94413 -25.10095,-43.74103 -27.03844,-47.89401c-2.12225,-2.95285 -4.15298,-8.12034 -4.15298,-8.12034l1.3849,91.63505c0,0.09238 -2.86133,28.0538 4.42928,31.46857"/>
      <path stroke="null" id="svg_36" fill="#499D4A" d="m5491.940522,3700.605674c0,0 33.1289,-21.77856 25.37724,-67.08927c-7.47451,-32.94413 -25.10095,-43.74103 -27.03844,-47.89401c-2.12225,-2.95285 -4.15298,-8.12034 -4.15298,-8.12034l1.3849,91.63505c0,0.09238 -2.86133,28.0538 4.42928,31.46857"/>
      <path stroke="null" id="svg_37" fill="#FFFFFF" d="m5484.188862,3701.804944c0,0 -31.09904,-21.22512 -29.25308,-58.59853c1.75272,-37.37427 23.71605,-55.73806 27.96056,-59.06045c2.76894,-2.95285 2.86133,-4.0606 3.04609,-7.01345c1.93749,4.15299 1.56881,62.10569 1.8451,68.93437c0.8306,26.30022 -1.47642,50.75534 -3.59867,55.73806l0,0l0,0z"/>
      <path stroke="null" id="svg_38" fill="#58AA50" d="m5484.188862,3701.804944c0,0 -31.09904,-21.22512 -29.25308,-58.59853c1.75272,-37.37427 23.71605,-55.73806 27.96056,-59.06045c2.76894,-2.95285 2.86133,-4.0606 3.04609,-7.01345c1.93749,4.15299 1.56881,62.10569 1.8451,68.93437c0.8306,26.30022 -1.47642,50.75534 -3.59867,55.73806l0,0l0,0z"/>
     </g>
    </g>
   </g>
  </g>
 </g>
</svg>