<svg width="500" height="314" xmlns="http://www.w3.org/2000/svg" xmlns:xlink="http://www.w3.org/1999/xlink">
 <!-- <defs> -->

 <!-- </defs> -->
 <!-- <text>  
    <textPath xlink:href="#text-path" >SVG text on a linear path</textPath>  
  </text> -->
 <g>
  <title>background</title>
  <rect fill="none" id="canvas_background" height="316" width="502" y="-1" x="-1"/>
 </g>
 <g>
  <title>Layer 1</title>
  <path stroke="null" id="svg_1" fill="#fff" d="m178.91197,85.25658c-9.76517,-7.67222 -22.01222,-12.21958 -35.32626,-12.21958c-31.33668,0 -56.85138,25.27868 -57.64002,56.78375c-32.35727,12.26623 -55.39009,43.84126 -55.39009,80.82649c0,43.70134 32.12533,79.82374 73.80707,85.51378l0,0.79287l295.27464,0l0,-0.13992c41.17144,-2.42526 73.80706,-36.93859 73.80706,-79.17078c0,-40.73972 -30.36249,-74.29694 -69.44637,-78.79767c0.16237,-2.4719 0.25515,-4.99044 0.25515,-7.50898c0,-63.12674 -52.67626,-114.29043 -117.64596,-114.29043c-48.0836,0 -89.44061,28.03043 -107.69522,68.21047"/>

  <metadata transform="matrix(0.04179043646177493,0,0,0.04179043646177493,0,0) " id="svg_28">image/svg+xml</metadata>
  <g stroke="null" id="svg_30">
   <g stroke="null" transform="matrix(0.1823893350755672,0,0,0.1823893350755672,-819.8108690196774,-490.2159062597061) " id="svg_17">
    <g stroke="null" id="svg_18">
     <polygon stroke="null" fill="#264de4" points="5638.160156249999,3341.052507162094 5605.114257812499,3711.251481771469 5456.570800781249,3752.432389974594 5308.437499999999,3711.309343099594 5275.425781249999,3341.052507162094 " id="svg_27"/>
     <polygon stroke="null" fill="#2965f1" points="5576.823242187499,3687.678483724594 5605.063476562499,3371.326432943344 5456.792968749999,3371.326432943344 5456.792968749999,3720.955339193344 " id="svg_26"/>
     <polygon stroke="null" fill="#ebebeb" points="5351.102539062499,3508.649430990219 5355.173339843749,3554.059343099594 5456.792968749999,3554.059343099594 5456.792968749999,3508.649430990219 " id="svg_25"/>
     <polygon stroke="null" fill="#ebebeb" points="5456.792968749999,3416.737321615219 5456.635742187499,3416.737321615219 5342.924804687499,3416.737321615219 5347.052734374999,3462.148454427719 5456.792968749999,3462.148454427719 " id="svg_24"/>
     <polygon stroke="null" fill="#ebebeb" points="5456.792968749999,3673.831315755844 5456.792968749999,3626.585466146469 5456.594238281249,3626.638444662094 5406.020507812499,3612.982438802719 5402.787109374999,3576.765397787094 5378.211914062499,3576.765397787094 5357.202148437499,3576.765397787094 5363.564453124999,3648.066423177719 5456.583984374999,3673.889421224594 " id="svg_23"/>
     <path stroke="null" d="m5360.79364,3240.431955l55,0l0,23l-32,0l0,23l32,0l0,23l-55,0l0,-69z" id="svg_22"/>
     <path stroke="null" d="m5426.79364,3240.431955l55,0l0,20l-32,0l0,4l32,0l0,46l-55,0l0,-21l32,0l0,-4l-32,0l0,-45z" id="svg_21"/>
     <path stroke="null" d="m5492.79364,3240.431955l55,0l0,20l-32,0l0,4l32,0l0,46l-55,0l0,-21l32,0l0,-4l-32,0l0,-45z" id="svg_20"/>
     <polygon stroke="null" fill="#ffffff" points="5512.554199218749,3554.059343099594 5507.282714843749,3612.953386068344 5456.635742187499,3626.623307943344 5456.635742187499,3673.867448568344 5549.730468749999,3648.066423177719 5550.413085937499,3640.394304037094 5561.083984374999,3520.843278646469 5562.191894531249,3508.649430990219 5570.389648437499,3416.737321615219 5456.635742187499,3416.737321615219 5456.635742187499,3462.148454427719 5520.623535156249,3462.148454427719 5516.491699218749,3508.649430990219 5456.635742187499,3508.649430990219 5456.635742187499,3554.059343099594 " id="svg_19"/>
    </g>
   </g>
  </g>
  <g stroke="null" id="svg_45">
   <g stroke="null" transform="matrix(0.25261734436161887,0,0,0.25261734436161887,-479.778295409742,-284.45547625768813) " id="svg_34">
    <path stroke="null" id="svg_35" fill="#E44D26" d="m3311.138396,1605.414101l-23.24114,260.35974l-104.4698,28.96246l-104.18216,-28.92167l-23.21652,-260.40053l255.10962,0l0,0z"/>
    <path stroke="null" id="svg_36" fill="#F16529" d="m3183.583586,1872.598631l84.4167,-23.4036l19.8611,-222.48932l-104.2778,0l0,245.89292l0,0z"/>
    <path stroke="null" id="svg_37" fill="#EBEBEB" d="m3138.403806,1690.580521l45.17978,0l0,-31.9374l-80.08299,0l0.76448,8.56826l7.8495,88.00984l71.46901,0l0,-31.9367l-42.2611,0l-2.91868,-32.704l0,0z"/>
    <path stroke="null" id="svg_38" fill="#EBEBEB" d="m3145.601346,1771.190281l-32.05978,0l4.47437,50.14576l65.42066,18.16123l0.14699,-0.04079l0,-33.22796l-0.13996,0.03728l-35.56852,-9.60422l-2.27376,-25.4713l0,0z"/>
    <path stroke="null" id="svg_39" fill="#000000" d="m3079.764336,1534.648391l16.22998,0l0,16.03516l14.84659,0l0,-16.03516l16.23068,0l0,48.55842l-16.22998,0l0,-16.26022l-14.84659,0l0,16.26022l-16.22998,0l0,-48.55842l-0.0007,0l0,0z"/>
    <path stroke="null" id="svg_40" fill="#000000" d="m3148.414536,1550.751071l-14.28818,0l0,-16.10268l44.81407,0l0,16.10268l-14.29451,0l0,32.45574l-16.23068,0l0,-32.45574l-0.0007,0l0,0z"/>
    <path stroke="null" id="svg_41" fill="#000000" d="m3186.052866,1534.648391l16.92342,0l10.4102,17.06198l10.39965,-17.06198l16.92976,0l0,48.55842l-16.16317,0l0,-24.06822l-11.16624,17.26523l-0.27921,0l-11.17398,-17.26523l0,24.06822l-15.88043,0l0,-48.55842l0,0z"/>
    <path stroke="null" id="svg_42" fill="#000000" d="m3248.793256,1534.648391l16.2349,0l0,32.50778l22.82409,0l0,16.05064l-39.05899,0l0,-48.55842l0,0z"/>
    <path stroke="null" id="svg_43" fill="#FFFFFF" d="m3183.473166,1755.221221l39.32695,0l-3.70708,41.41996l-35.61987,9.61407l0,33.22655l65.47271,-18.14576l0.48035,-5.39569l7.50488,-84.07983l0.77925,-8.576l-74.23719,0l0,31.9367l0,0z"/>
    <path stroke="null" id="svg_44" fill="#FFFFFF" d="m3183.473166,1690.502461l0,0.07806l77.14321,0l0.64071,-7.17855l1.45511,-16.19059l0.76379,-8.56826l-80.00282,0l0,31.85934l0,0z"/>
   </g>
  </g>
  <g stroke="null" id="svg_53">
   <g stroke="null" transform="matrix(0.260911726695759,0,0,0.260911726695759,-128.20854299757775,-76.05096524451073) " id="svg_49">
    <path stroke="null" id="svg_50" fill="#F7DF1E" d="m1339.26191,1073.750317l256,0l0,256l-256,0l0,-256z"/>
    <path stroke="null" id="svg_51" fill="#000000" d="m1406.57366,1287.682607l19.5909,-11.85605c3.77946,6.70111 7.21758,12.3709 15.46444,12.3709c7.90511,0 12.88899,-3.09232 12.88899,-15.12026l0,-81.79809l24.05749,0l0,82.13821c0,24.91733 -14.60581,36.25894 -35.91517,36.25894c-19.2451,0 -30.41646,-9.96734 -36.08706,-21.99568"/>
    <path stroke="null" id="svg_52" fill="#000000" d="m1491.64286,1285.104727l19.58847,-11.34161c5.15657,8.42118 11.85849,14.60703 23.71495,14.60703c9.96815,0 16.32467,-4.98387 16.32467,-11.85767c0,-8.24848 -6.52962,-11.17013 -17.52787,-15.98009l-6.01275,-2.57951c-17.35721,-7.38783 -28.87111,-16.66722 -28.87111,-36.25772c0,-18.04353 13.7472,-31.79155 35.22844,-31.79155c15.29417,0 26.29201,5.32765 34.19591,19.24714l-18.73107,12.02835c-4.12444,-7.38865 -8.59103,-10.30949 -15.46443,-10.30949c-7.04569,0 -11.51391,4.46781 -11.51391,10.30949c0,7.21757 4.46822,10.13963 14.77771,14.60784l6.01396,2.57747c20.44953,8.76455 31.96343,17.69936 31.96343,37.8043c0,21.65353 -17.01221,33.50959 -39.86692,33.50959c-22.33945,0 -36.7746,-10.65367 -43.81907,-24.57357"/>
   </g>
  </g>
  <g stroke="null" id="svg_59">
   <g stroke="null" transform="matrix(0.3155992397033631,0,0,0.3155992397033631,-202.99687337198338,-122.50942997266247) " id="svg_57">
    <path stroke="null" id="svg_58" fill="#00D8FF" d="m1915.866057,1100.656371c-2.65568,-0.91409 -5.40751,-1.77896 -8.24091,-2.5969c0.4657,-1.90063 0.89313,-3.77665 1.27316,-5.62077c6.23821,-30.28108 2.15945,-54.67572 -11.7683,-62.70748c-13.35497,-7.70139 -35.196,0.32855 -57.25439,19.52529c-2.12118,1.84594 -4.24828,3.80034 -6.37446,5.84861c-1.4167,-1.35519 -2.83112,-2.6648 -4.2419,-3.91746c-23.11783,-20.5264 -46.2899,-29.17651 -60.20398,-21.12151c-13.34221,7.72371 -17.29338,30.657 -11.67808,59.3546c0.54225,2.77188 1.1761,5.60254 1.89288,8.4806c-3.27951,0.93094 -6.44555,1.92341 -9.47488,2.97921c-27.10319,9.44937 -44.41252,24.25885 -44.41252,39.62017c0,15.86529 18.58158,31.77842 46.81165,41.42737c2.22781,0.76144 4.53945,1.48141 6.92173,2.16492c-0.77328,3.11273 -1.44586,6.16303 -2.01045,9.13814c-5.35419,28.19954 -1.17291,50.59103 12.13376,58.26599c13.74457,7.92604 36.81183,-0.221 59.27349,-19.85519c1.77532,-1.55203 3.55702,-3.19794 5.3419,-4.92313c2.31347,2.2278 4.62329,4.33622 6.92082,6.31385c21.75673,18.72239 43.24507,26.28252 56.53943,18.58614c13.7309,-7.94882 18.19335,-32.00262 12.39987,-61.26799c-0.44246,-2.23509 -0.95737,-4.51849 -1.53563,-6.84244c1.61993,-0.47892 3.21024,-0.97332 4.76091,-1.48733c29.34785,-9.72368 48.44252,-25.44316 48.44252,-41.52033c0,-15.41691 -17.86753,-30.32619 -45.51662,-39.84436l0,0zm-6.36535,70.98393c-1.39983,0.46342 -2.83613,0.91135 -4.29976,1.34561c-3.23986,-10.25683 -7.61253,-21.16345 -12.96354,-32.43187c5.10631,-11.00003 9.30993,-21.76721 12.45911,-31.95751c2.61877,0.75779 5.16053,1.55705 7.6098,2.40051c23.68971,8.15524 38.14012,20.2129 38.14012,29.50369c0,9.89638 -15.60601,22.74327 -40.94573,31.13957l0,0zm-10.51428,20.83444c2.56182,12.94076 2.92773,24.64071 1.23079,33.78705c-1.5247,8.21858 -4.59095,13.69809 -8.38217,15.89263c-8.06776,4.66977 -25.32058,-1.4003 -43.92722,-17.41186c-2.13303,-1.83546 -4.28154,-3.79533 -6.43689,-5.86957c7.21336,-7.88913 14.42262,-17.06053 21.45872,-27.24627c12.37572,-1.09818 24.06792,-2.89354 34.67106,-5.34463c0.52221,2.1066 0.98609,4.17263 1.38571,6.19265l0,0zm-106.32756,48.87268c-7.8823,2.78372 -14.16015,2.86347 -17.95503,0.67531c-8.07504,-4.65747 -11.43201,-22.63574 -6.85292,-46.75196c0.52449,-2.76186 1.14876,-5.5989 1.86828,-8.49882c10.48694,2.31893 22.09348,3.98762 34.49881,4.9933c7.0835,9.96701 14.501,19.12839 21.97592,27.15012c-1.63315,1.57664 -3.25991,3.07764 -4.87757,4.49206c-9.93238,8.68201 -19.88572,14.84184 -28.65749,17.93999l0,0zm-36.92758,-69.76773c-12.4828,-4.2665 -22.79157,-9.81163 -29.85775,-15.86256c-6.34939,-5.43758 -9.55508,-10.83598 -9.55508,-15.2164c0,-9.32178 13.89768,-21.21175 37.07658,-29.29317c2.81244,-0.98062 5.75656,-1.90473 8.81187,-2.77279c3.20341,10.42041 7.40566,21.31518 12.47688,32.33207c-5.13684,11.18048 -9.39878,22.24886 -12.63363,32.7914c-2.17813,-0.6261 -4.28837,-1.28501 -6.31887,-1.97855l0,0zm12.37846,-84.25915c-4.81104,-24.5874 -1.61583,-43.13526 6.42458,-47.78954c8.56444,-4.95821 27.50282,2.11115 47.46327,19.83469c1.2759,1.13281 2.5568,2.31848 3.84136,3.54517c-7.43801,7.98664 -14.78762,17.07921 -21.80823,26.98744c-12.03989,1.11595 -23.56486,2.90858 -34.16116,5.30909c-0.6662,-2.67984 -1.2563,-5.31274 -1.75982,-7.88685l0,0zm110.42683,27.26723c-2.5331,-4.37541 -5.13365,-8.64738 -7.78478,-12.80269c8.16801,1.03256 15.99379,2.40324 23.34295,4.08058c-2.20639,7.07119 -4.9564,14.46454 -8.19352,22.04381c-2.32213,-4.40867 -4.77823,-8.85379 -7.36465,-13.3217l0,0zm-45.03178,-43.86115c5.04434,5.46493 10.09597,11.56644 15.06467,18.18651c-5.00698,-0.2365 -10.07592,-0.35953 -15.18679,-0.35953c-5.06257,0 -10.09415,0.1203 -15.07013,0.35269c4.97371,-6.55855 10.06908,-12.65186 15.19225,-18.17967l0,0zm-45.32022,43.93679c-2.53037,4.38771 -4.9409,8.80868 -7.22658,13.23786c-3.18472,-7.55284 -5.90921,-14.97991 -8.13473,-22.15135c7.30404,-1.63451 15.09291,-2.97101 23.20897,-3.98398c-2.68849,4.19359 -5.31045,8.497 -7.84766,12.89656l0,0.00091l0,0zm8.08142,65.35222c-8.38536,-0.9355 -16.29135,-2.2032 -23.59356,-3.7926c2.26106,-7.29948 5.0457,-14.88513 8.29787,-22.60064c2.29159,4.42598 4.71169,8.84878 7.25756,13.24606l0.00045,0c2.59326,4.47976 5.27993,8.86792 8.03768,13.14718l0,0zm37.54137,31.03021c-5.18332,-5.59252 -10.35343,-11.77879 -15.40278,-18.43303c4.90171,0.19229 9.89912,0.29072 14.97809,0.29072c5.21795,0 10.37621,-0.11756 15.45336,-0.34358c-4.9851,6.77409 -10.01851,12.96992 -15.02867,18.48589l0,0zm52.19821,-57.8167c3.42167,7.7989 6.3061,15.34491 8.59633,22.51999c-7.42251,1.69329 -15.43649,3.05713 -23.88018,4.07056c2.65751,-4.21136 5.28083,-8.5567 7.8586,-13.02643c2.60783,-4.52213 5.08398,-9.0511 7.42525,-13.56412l0,0zm-16.89831,8.10056c-4.00175,6.93859 -8.11014,13.5623 -12.28094,19.81464c-7.59659,0.54317 -15.4447,0.82295 -23.44365,0.82295c-7.96659,0 -15.71583,-0.24743 -23.17799,-0.73181c-4.33895,-6.33436 -8.53664,-12.97767 -12.51288,-19.84609l0.00092,0c-3.96576,-6.84972 -7.61573,-13.75733 -10.92303,-20.62619c3.30639,-6.88482 6.94679,-13.80017 10.88976,-20.6376l-0.00091,0.00137c3.95345,-6.85565 8.11423,-13.46661 12.41308,-19.76132c7.61345,-0.57552 15.42055,-0.87581 23.31059,-0.87581l0.00046,0c7.92558,0 15.74271,0.30256 23.35388,0.8831c4.23323,6.24869 8.36577,12.83823 12.33471,19.69479c4.01405,6.93358 7.70139,13.8029 11.03603,20.54008c-3.32462,6.85292 -7.00375,13.79151 -11.00003,20.72189l0,0zm22.56009,-122.12405c8.57264,4.94363 11.90637,24.88131 6.52027,51.02575c-0.34358,1.66823 -0.73045,3.36745 -1.15058,5.08945c-10.62091,-2.45063 -22.15408,-4.27425 -34.22905,-5.40706c-7.03429,-10.01714 -14.32374,-19.12383 -21.64054,-27.00795c1.96715,-1.89242 3.93158,-3.6969 5.88779,-5.39976c18.89965,-16.44765 36.56395,-22.9415 44.61211,-18.30043l0,0zm-58.28468,78.43515c12.62498,0 22.85993,10.23449 22.85993,22.85993c0,12.62497 -10.23495,22.85992 -22.85993,22.85992c-12.62497,0 -22.85993,-10.23495 -22.85993,-22.85992c0,-12.62544 10.23496,-22.85993 22.85993,-22.85993l0,0z"/>
   </g>
  </g>
  <defs>
   <path d="m0,0l122.522,0l0,122.523l-122.522,0l0,-122.523z" id="svg_75"/>
  </defs>
  <clipPath transform="matrix(0.7297744515001092,0,0,0.7297744515001092,0,0) " id="svg_74">
   <use x="-1.69371" y="296.292557" id="svg_77" xlink:href="#svg_75"/>
  </clipPath>
  <g stroke="null" id="svg_93">
   <g stroke="null" transform="matrix(0.10695530863563542,0,0,0.10695530863563542,-2180.431704873183,-1338.0522470876517) " id="svg_89">
    <path stroke="null" id="svg_91" fill-rule="nonzero" fill="rgb(19.599915%,21.598816%,23.498535%)" d="m21507.151805,14397.606584c-184.09375,0 -333.33203,149.23828 -333.33203,333.33203c0,184.09375 149.23828,333.33203 333.33203,333.33203c184.09375,0 333.33203,-149.23828 333.33203,-333.33203c0,-184.09375 -149.23828,-333.33203 -333.33203,-333.33203m0,20c42.30859,0 83.33984,8.28125 121.95703,24.61328c18.5625,7.85156 36.46875,17.57031 53.21875,28.88672c16.59375,11.21094 32.19922,24.08594 46.38281,38.27344c14.1836,14.18359 27.0625,29.78906 38.27344,46.38281c11.31641,16.75 21.03516,34.65625 28.88672,53.21875c16.33203,38.61719 24.61328,79.64844 24.61328,121.95703c0,42.30859 -8.28125,83.33984 -24.61328,121.95703c-7.85156,18.5625 -17.57031,36.46485 -28.88672,53.21485c-11.21094,16.59765 -24.08984,32.20312 -38.27344,46.38671c-14.18359,14.1836 -29.78906,27.0625 -46.38281,38.27344c-16.75,11.31641 -34.65625,21.03516 -53.21875,28.88672c-38.61719,16.33203 -79.64844,24.61328 -121.95703,24.61328c-42.30859,0 -83.33984,-8.28125 -121.95703,-24.61328c-18.5625,-7.85156 -36.46875,-17.57031 -53.21875,-28.88672c-16.59375,-11.21094 -32.19922,-24.08984 -46.38281,-38.27344c-14.1836,-14.18359 -27.0625,-29.78906 -38.27344,-46.38671c-11.31641,-16.75 -21.03516,-34.65235 -28.88672,-53.21485c-16.33203,-38.61719 -24.61328,-79.64844 -24.61328,-121.95703c0,-42.30859 8.28125,-83.33984 24.61328,-121.95703c7.85156,-18.5625 17.57031,-36.46875 28.88672,-53.21875c11.21094,-16.59375 24.08984,-32.19922 38.27344,-46.38281c14.18359,-14.1875 29.78906,-27.0625 46.38281,-38.27344c16.75,-11.31641 34.65625,-21.03516 53.21875,-28.88672c38.61719,-16.33203 79.64844,-24.61328 121.95703,-24.61328"/>
    <path stroke="null" id="svg_92" fill-rule="nonzero" fill="rgb(19.599915%,21.598816%,23.498535%)" d="m21750.909615,14597.669084c1.19532,8.84766 1.86719,18.33984 1.86719,28.5625c0,28.17578 -5.27734,59.86328 -21.12891,99.49219l-84.83984,245.29687c82.58594,-48.14844 138.12109,-137.61719 138.12109,-240.09375c0,-48.29297 -12.33984,-93.69531 -34.01953,-133.25781m-238.8789,157.55469l-83.35547,242.17578c24.89453,7.32422 51.21094,11.3164 78.47656,11.3164c32.34766,0 63.37891,-5.58203 92.25,-15.75c-0.74219,-1.1875 -1.42969,-2.44921 -1.99219,-3.82812l-85.3789,-233.91406zm182.64453,-38.30469c0,-34.33984 -12.33594,-58.10938 -22.89844,-76.60547c-14.08203,-22.89062 -27.28906,-42.25781 -27.28906,-65.14844c0,-25.53125 19.36328,-49.30078 46.64844,-49.30078c1.23437,0 2.39843,0.14844 3.59765,0.22656c-49.42187,-45.28125 -115.26562,-72.92968 -187.58203,-72.92968c-97.04687,0 -182.42187,49.79297 -232.08984,125.19531c6.51953,0.20703 12.66797,0.33984 17.875,0.33984c29.05078,0 74.03515,-3.53125 74.03515,-3.53125c14.96875,-0.8789 16.73438,21.1211 1.77735,22.89063c0,0 -15.05469,1.76172 -31.78907,2.63672l101.14844,300.88672l60.79688,-182.3125l-43.27344,-118.57422c-14.96484,-0.875 -29.13281,-2.63672 -29.13281,-2.63672c-14.97657,-0.88672 -13.22266,-23.76953 1.76172,-22.89063c0,0 45.86328,3.53125 73.15625,3.53125c29.04687,0 74.03906,-3.53125 74.03906,-3.53125c14.97656,-0.8789 16.73828,21.1211 1.77344,22.89063c0,0 -15.07032,1.76172 -31.79297,2.63672l100.38672,298.59375l28.65625,-90.80078c12.73046,-39.6836 20.19531,-67.79688 20.19531,-91.56641m-465.30078,14.00781c0,109.94531 63.89062,204.96875 156.55859,249.98828l-132.50781,-363.03125c-15.41016,34.54297 -24.05078,72.77344 -24.05078,113.04297"/>
   </g>
  </g>
 </g>
</svg>