<svg width="500" height="314" xmlns="http://www.w3.org/2000/svg" xmlns:xlink="http://www.w3.org/1999/xlink">
 <!-- <defs> -->
 <!-- </defs> -->
 <!-- <text>  
    <textPath xlink:href="#text-path" >SVG text on a linear path</textPath>  
  </text> -->
 <g>
  <title>background</title>
  <rect x="-1" y="-1" width="502" height="316" id="canvas_background" fill="none"/>
 </g>
 <g>
  <title>Layer 1</title>
  <path d="m178.91197,85.25658c-9.76517,-7.67222 -22.01222,-12.21958 -35.32626,-12.21958c-31.33668,0 -56.85138,25.27868 -57.64002,56.78375c-32.35727,12.26623 -55.39009,43.84126 -55.39009,80.82649c0,43.70134 32.12533,79.82374 73.80707,85.51378l0,0.79287l295.27464,0l0,-0.13992c41.17144,-2.42526 73.80706,-36.93859 73.80706,-79.17078c0,-40.73972 -30.36249,-74.29694 -69.44637,-78.79767c0.16237,-2.4719 0.25515,-4.99044 0.25515,-7.50898c0,-63.12674 -52.67626,-114.29043 -117.64596,-114.29043c-48.0836,0 -89.44061,28.03043 -107.69522,68.21047" fill="#fff" id="svg_1" stroke="null"/>
  <metadata id="svg_28">image/svg+xml</metadata>
  <defs>
   <path id="svg_75" d="m0,0l122.522,0l0,122.523l-122.522,0l0,-122.523z"/>
  </defs>
  <clipPath id="svg_74">
   <use xlink:href="#svg_75" id="svg_77" y="296.292557" x="-1.69371"/>
  </clipPath>
  <g stroke="null" id="svg_8">
   <g stroke="null" transform="matrix(0.4378843870635566,0,0,0.4378843870635566,-359.7006831820494,-218.04662850222627) " id="svg_5">
    <path stroke="null" id="svg_6" fill-rule="nonzero" fill="#252F3E" d="m1360.746344,766.289686c0,3.13642 0.33908,5.67947 0.93245,7.54437c0.67815,1.8649 1.52583,3.89934 2.71259,6.10331c0.42384,0.67815 0.59337,1.35629 0.59337,1.94967c0,0.84768 -0.50861,1.69537 -1.61059,2.54305l-5.3404,3.56026c-0.76291,0.50861 -1.52583,0.76292 -2.20397,0.76292c-0.84769,0 -1.69537,-0.42384 -2.54305,-1.18676c-1.18675,-1.27152 -2.20397,-2.62781 -3.05166,-3.9841c-0.84768,-1.44106 -1.69536,-3.05166 -2.62781,-5.00133c-6.61192,7.79868 -14.91921,11.69801 -24.92185,11.69801c-7.12053,0 -12.8,-2.03443 -16.95365,-6.10331c-4.15364,-4.06887 -6.27284,-9.49404 -6.27284,-16.27549c0,-7.2053 2.54304,-13.05431 7.7139,-17.46226c5.17086,-4.40794 12.03709,-6.61192 20.76821,-6.61192c2.88212,0 5.84901,0.25431 8.98544,0.67815c3.13642,0.42384 6.35761,1.10199 9.74834,1.8649l0,-6.18808c0,-6.44238 -1.35629,-10.9351 -3.98411,-13.56291c-2.71258,-2.62782 -7.29006,-3.89934 -13.81721,-3.89934c-2.96689,0 -6.01855,0.33907 -9.15497,1.10199c-3.13643,0.76291 -6.18808,1.69536 -9.15497,2.88212c-1.35629,0.59337 -2.37351,0.93245 -2.96689,1.10198c-0.59337,0.16954 -1.01721,0.25431 -1.35629,0.25431c-1.18675,0 -1.78013,-0.84769 -1.78013,-2.62782l0,-4.15364c0,-1.35629 0.16954,-2.37351 0.59338,-2.96689c0.42384,-0.59337 1.18675,-1.18675 2.37351,-1.78013c2.96689,-1.52583 6.52715,-2.79735 10.68079,-3.81457c4.15364,-1.10199 8.56159,-1.6106 13.22384,-1.6106c10.08742,0 17.46226,2.28875 22.20928,6.86623c4.66225,4.57748 7.03576,11.52848 7.03576,20.85298l0,27.4649l0.16953,0zm-34.41589,12.88477c2.79735,0 5.67947,-0.50861 8.73112,-1.52583c3.05166,-1.01722 5.76424,-2.88212 8.05298,-5.42516c1.3563,-1.6106 2.37351,-3.39073 2.88212,-5.42517c0.50861,-2.03444 0.84769,-4.49272 0.84769,-7.37483l0,-3.56027c-2.45828,-0.59338 -5.0861,-1.10199 -7.79868,-1.44106c-2.71258,-0.33907 -5.3404,-0.50861 -7.96821,-0.50861c-5.67947,0 -9.83311,1.10199 -12.63046,3.39073c-2.79736,2.28874 -4.15365,5.50993 -4.15365,9.74834c0,3.98411 1.01722,6.951 3.13643,8.98544c2.03443,2.1192 5.00132,3.13642 8.90066,3.13642zm68.06887,9.15497c-1.52583,0 -2.54304,-0.25431 -3.22119,-0.84769c-0.67814,-0.50861 -1.27152,-1.69536 -1.78013,-3.30596l-19.92053,-65.52582c-0.50861,-1.69537 -0.76292,-2.79736 -0.76292,-3.39073c0,-1.35629 0.67815,-2.11921 2.03444,-2.11921l8.30729,0c1.61059,0 2.71258,0.25431 3.30596,0.84768c0.67814,0.50861 1.18675,1.69537 1.69536,3.30596l14.24106,56.11656l13.22384,-56.11656c0.42384,-1.69536 0.93245,-2.79735 1.6106,-3.30596c0.67814,-0.50861 1.8649,-0.84768 3.39073,-0.84768l6.78145,0c1.6106,0 2.71259,0.25431 3.39073,0.84768c0.67815,0.50861 1.27153,1.69537 1.6106,3.30596l13.39338,56.79471l14.6649,-56.79471c0.5086,-1.69536 1.10198,-2.79735 1.69536,-3.30596c0.67815,-0.50861 1.78013,-0.84768 3.30596,-0.84768l7.88344,0c1.3563,0 2.11921,0.67815 2.11921,2.11921c0,0.42384 -0.08477,0.84768 -0.16954,1.35629c-0.08476,0.50861 -0.2543,1.18675 -0.59337,2.1192l-20.42914,65.52583c-0.50861,1.69537 -1.10199,2.79735 -1.78014,3.30596c-0.67814,0.50861 -1.78013,0.84768 -3.22119,0.84768l-7.29006,0c-1.6106,0 -2.71259,-0.2543 -3.39073,-0.84768c-0.67815,-0.59338 -1.27153,-1.69536 -1.6106,-3.39073l-13.13907,-54.67549l-13.05431,54.59073c-0.42384,1.69536 -0.93245,2.79735 -1.61059,3.39072c-0.67815,0.59338 -1.8649,0.84769 -3.39073,0.84769l-7.29007,0zm108.92715,2.28874c-4.40794,0 -8.81589,-0.50861 -13.0543,-1.52583c-4.23841,-1.01722 -7.54437,-2.11921 -9.74834,-3.39073c-1.3563,-0.76291 -2.28874,-1.61059 -2.62782,-2.37351c-0.33907,-0.76291 -0.50861,-1.61059 -0.50861,-2.37351l0,-4.32318c0,-1.78013 0.67815,-2.62781 1.94967,-2.62781c0.50861,0 1.01722,0.08477 1.52583,0.2543c0.50861,0.16954 1.27152,0.50861 2.1192,0.84768c2.88212,1.27153 6.01855,2.28875 9.32451,2.96689c3.39073,0.67815 6.69669,1.01722 10.08742,1.01722c5.34039,0 9.49403,-0.93245 12.37615,-2.79735c2.88212,-1.8649 4.40795,-4.57748 4.40795,-8.05298c0,-2.37351 -0.76291,-4.32318 -2.28874,-5.93378c-1.52583,-1.61059 -4.40795,-3.05165 -8.56159,-4.40794l-12.29139,-3.81457c-6.18808,-1.94967 -10.76556,-4.83179 -13.56292,-8.64636c-2.79735,-3.7298 -4.2384,-7.88344 -4.2384,-12.29139c0,-3.56027 0.76291,-6.69669 2.28874,-9.40927c1.52582,-2.71258 3.56026,-5.08609 6.10331,-6.951c2.54304,-1.94966 5.42516,-3.39072 8.81589,-4.40794c3.39073,-1.01722 6.951,-1.44106 10.6808,-1.44106c1.8649,0 3.81457,0.08477 5.67947,0.33907c1.94966,0.25431 3.7298,0.59338 5.50993,0.93245c1.69536,0.42384 3.30596,0.84768 4.83179,1.35629c1.52583,0.50861 2.71258,1.01722 3.56026,1.52583c1.18676,0.67815 2.03444,1.35629 2.54305,2.11921c0.50861,0.67814 0.76291,1.61059 0.76291,2.79735l0,3.9841c0,1.78014 -0.67814,2.71259 -1.94966,2.71259c-0.67815,0 -1.78014,-0.33908 -3.2212,-1.01722c-4.83179,-2.20398 -10.25695,-3.30596 -16.27549,-3.30596c-4.83179,0 -8.64636,0.76291 -11.27418,2.37351c-2.62781,1.61059 -3.9841,4.06887 -3.9841,7.54437c0,2.37351 0.84768,4.40794 2.54304,6.01854c1.69537,1.6106 4.83179,3.22119 9.32451,4.66225l12.03708,3.81457c6.10331,1.94967 10.51126,4.66225 13.13908,8.13775c2.62781,3.4755 3.89933,7.4596 3.89933,11.86755c0,3.64503 -0.76291,6.95099 -2.20397,9.83311c-1.52583,2.88212 -3.56026,5.42517 -6.18808,7.45961c-2.62781,2.1192 -5.76424,3.64503 -9.40927,4.74702c-3.81457,1.18675 -7.79868,1.78013 -12.12186,1.78013z"/>
    <path stroke="null" id="svg_7" fill="#FF9900" d="m1519.347674,831.815516c-27.88874,20.59867 -68.40795,31.53377 -103.24769,31.53377c-48.82648,0 -92.82119,-18.05563 -126.05033,-48.06357c-2.62781,-2.37351 -0.2543,-5.5947 2.88212,-3.7298c35.94173,20.85298 80.2755,33.48344 126.1351,33.48344c30.9404,0 64.93245,-6.44239 96.21192,-19.66623c4.66226,-2.1192 8.64636,3.05166 4.06888,6.44239zm11.61324,-13.22384c-3.56026,-4.57749 -23.56556,-2.20398 -32.63576,-1.10199c-2.71258,0.33907 -3.13642,-2.03444 -0.67815,-3.81457c15.93643,-11.1894 42.12981,-7.96821 45.18146,-4.23841c3.05166,3.81457 -0.84768,30.00795 -15.76688,42.55364c-2.28875,1.94967 -4.49272,0.93245 -3.4755,-1.61059c3.39073,-8.39206 10.9351,-27.29537 7.37483,-31.78808z"/>
   </g>
  </g>
  <g stroke="null" id="svg_15">
   <g stroke="null" transform="matrix(0.4644872369853783,0,0,0.4644872369853783,-390.80609549017163,-255.8650346335823) " id="svg_12" fill="#0080FF">
    <path stroke="null" id="svg_13" d="m1183.684323,1045.918899l0,24.70509c41.87377,0 74.47714,-40.45308 60.77933,-84.33206c-5.9859,-19.17534 -21.22262,-34.41206 -40.39796,-40.39796c-43.87898,-13.69781 -84.33278,18.90629 -84.33278,60.78005l24.76165,0c0.00363,0 0.00653,-0.00652 0.00653,-0.00652c0.00362,-26.2788 26.01047,-46.59563 53.63889,-36.57029c10.23565,3.71454 18.40009,11.87753 22.1168,22.11245c10.02684,27.61222 -10.25944,53.60881 -36.5159,53.6461l0,-24.62527c0,0 -0.00217,-0.00145 -0.00435,-0.00145l-24.6855,0c-0.00218,0 -0.00436,0.00362 -0.00436,0.00362l0,24.68624l24.63765,0zm-24.642,18.97373l-18.9672,0l-0.00435,-0.00435l0,-18.96938l18.9759,0l0,18.96938c0,0 -0.00217,0.00435 -0.00435,0.00435zm-18.9585,-18.97373l-15.90028,0c-0.00653,0 -0.01161,-0.00435 -0.01161,-0.00435l0,-15.89304c0,0 0.00508,-0.0116 0.01161,-0.0116l15.88868,0c0.00652,0 0.0116,0.00508 0.0116,0.00508l0,15.90391z"/>
    <path stroke="null" id="svg_14" d="m1077.974453,1095.684429c-3.21922,-2.23366 -7.22529,-3.36571 -11.90654,-3.36571l-10.18996,0l0,32.32924l10.18996,0c4.66964,0 8.67717,-1.19515 11.91016,-3.54991c1.75937,-1.24882 3.14163,-2.99368 4.10906,-5.18455c0.96236,-2.17926 1.45042,-4.75014 1.45042,-7.64011c0,-2.85661 -0.48806,-5.39413 -1.45115,-7.54293c-0.9667,-2.15896 -2.35041,-3.85668 -4.11195,-5.04603zm-16.14468,2.09876l3.19819,0c3.55861,0 6.48775,0.69983 8.70907,2.08281c2.46572,1.48669 3.71672,4.31502 3.71672,8.40739c0,4.21494 -1.2539,7.1709 -3.72542,8.78885l-0.00218,0c-2.12704,1.40691 -5.03877,2.12052 -8.65396,2.12052l-3.24242,0l0,-21.39957zm25.88138,26.86477l5.7299,0l0,-22.77022l-5.7299,0l0,22.77022zm2.91971,-32.72739c-0.97904,0 -1.82319,0.34738 -2.50271,1.02763c-0.6875,0.65487 -1.03633,1.48524 -1.03633,2.4679c0,0.97904 0.34665,1.82246 1.03198,2.50706c0.68387,0.68532 1.52802,1.0327 2.50706,1.0327c0.97903,0 1.82246,-0.34738 2.50778,-1.0327c0.68605,-0.68533 1.0327,-1.52875 1.0327,-2.50706c0,-0.98121 -0.34882,-1.81158 -1.0327,-2.46355c-0.68532,-0.6846 -1.52875,-1.03198 -2.50778,-1.03198zm23.61799,11.8594c-1.72746,-1.53672 -3.65652,-2.43308 -5.74296,-2.43308c-3.16265,0 -5.79154,1.09434 -7.81271,3.24967c-2.04655,2.13866 -3.08505,4.89084 -3.08505,8.17967c0,3.21415 1.02182,5.9569 3.04154,8.15647c2.03567,2.12777 4.67907,3.20616 7.85622,3.20616c2.209,0 4.10761,-0.61498 5.65521,-1.82971l0,0.52433c0,1.88918 -0.5062,3.35919 -1.50337,4.36868c-0.99644,1.00805 -2.37869,1.5186 -4.10687,1.5186c-2.64485,0 -4.30269,-1.03923 -6.32096,-3.76676l-3.90164,3.74863l0.10516,0.14794c0.84269,1.18282 2.13357,2.34026 3.8371,3.44041c1.70425,1.09507 3.84652,1.65203 6.36809,1.65203c3.40197,0 6.15343,-1.04866 8.17967,-3.11624c2.03785,-2.07846 3.07127,-4.86182 3.07127,-8.26959l0,-20.67944l-5.6407,0l0,1.90223zm-1.50264,13.44834c-1.00152,1.13714 -2.28732,1.6883 -3.93065,1.6883c-1.64261,0 -2.92116,-0.55116 -3.90817,-1.68685c-0.98194,-1.1306 -1.48088,-2.62889 -1.48088,-4.45353c0,-1.85436 0.49894,-3.37151 1.4816,-4.51009c0.97324,-1.12626 2.28805,-1.69772 3.90745,-1.69772c1.64188,0 2.92841,0.55551 3.92993,1.70062c0.99789,1.13786 1.50336,2.65428 1.50336,4.50719c0,1.82391 -0.50547,3.3222 -1.50264,4.45208zm12.04723,7.41965l5.7299,0l0,-22.77022l-5.7299,0l0,22.77022zm2.92043,-32.72739c-0.97976,0 -1.82391,0.34738 -2.50343,1.02763c-0.6875,0.65487 -1.03633,1.48524 -1.03633,2.4679c0,0.97904 0.34665,1.82246 1.03198,2.50706c0.68387,0.68532 1.52802,1.0327 2.50778,1.0327c0.97831,0 1.82173,-0.34738 2.50779,-1.0327c0.68532,-0.68533 1.03197,-1.52875 1.03197,-2.50706c0,-0.98121 -0.34882,-1.81158 -1.03197,-2.46355c-0.68606,-0.6846 -1.52948,-1.03198 -2.50779,-1.03198zm15.36798,3.80519l-5.6407,0l0,6.15198l-3.27579,0l0,5.22226l3.27579,0l0,9.45822c0,2.95959 0.59104,5.07721 1.75791,6.29339c1.16977,1.22198 3.24678,1.84132 6.17373,1.84132c0.93118,0 1.86815,-0.03119 2.78409,-0.09066l0.25818,-0.0174l0,-5.21791l-1.9646,0.10298c-1.36412,0 -2.27499,-0.24004 -2.70794,-0.71143c-0.43876,-0.47936 -0.66067,-1.49321 -0.66067,-3.01253l0,-8.64598l5.33321,0l0,-5.22226l-5.33321,0l0,-6.15198zm24.99807,7.85551l-0.00072,0c-1.73616,-1.48234 -4.13662,-2.23438 -7.13319,-2.23438c-1.90659,0 -3.68916,0.41844 -5.30203,1.23648c-1.49176,0.7564 -2.95669,2.00957 -3.88787,3.64927l0.05802,0.06962l3.66885,3.51221c1.51134,-2.40916 3.19166,-3.24605 5.41951,-3.24605c1.19733,0 2.19087,0.32126 2.95452,0.95438c0.7593,0.62876 1.12916,1.42866 1.12916,2.44251l0,1.10595c-1.4207,-0.43223 -2.83776,-0.65124 -4.21639,-0.65124c-2.85153,0 -5.17149,0.67082 -6.89532,1.99361c-1.74559,1.33947 -2.63035,3.25548 -2.63035,5.69582c0,2.13937 0.74625,3.87698 2.22278,5.16931c1.48959,1.24592 3.35048,1.87903 5.53265,1.87903c2.18144,0 4.22218,-0.87969 6.0751,-2.3845l0,1.87467l5.64143,0l0,-14.63769c0,-2.77176 -0.88694,-4.93434 -2.63615,-6.429zm-10.17328,12.36559c0.64979,-0.45325 1.56791,-0.6817 2.7297,-0.6817c1.37935,0 2.84211,0.27703 4.34983,0.82384l0,2.23366c-1.2452,1.15744 -2.90883,1.74486 -4.94595,1.74486c-0.99209,0 -1.76299,-0.22046 -2.29313,-0.65632c-0.51997,-0.42642 -0.77307,-0.96888 -0.77307,-1.65638c0,-0.78106 0.30531,-1.37283 0.93262,-1.80796zm17.37464,8.7011l5.7299,0l0,-32.32924l-5.7299,0l0,32.32924zm26.51885,0.48734c-9.1899,0 -16.66611,-7.47621 -16.66611,-16.66683c0,-9.18989 7.47621,-16.6661 16.66611,-16.6661c9.18989,0 16.6661,7.47621 16.6661,16.6661c0,9.19062 -7.47621,16.66683 -16.6661,16.66683zm0,-27.45944c-5.9511,0 -10.79262,4.84152 -10.79262,10.79261c0,5.95182 4.84152,10.79261 10.79262,10.79261c5.95109,0 10.79261,-4.84079 10.79261,-10.79261c0,-5.95109 -4.84152,-10.79261 -10.79261,-10.79261zm37.09679,18.83014c-1.02473,1.14874 -2.07338,2.14445 -2.88127,2.66226l0,0.00072c-0.79193,0.50838 -1.792,0.76655 -2.9712,0.76655c-1.68829,0 -3.04589,-0.61498 -4.15184,-1.8812c-1.09942,-1.25969 -1.65711,-2.87837 -1.65711,-4.81396c0,-1.93487 0.55044,-3.55136 1.63608,-4.80163c1.09145,-1.25897 2.44179,-1.87032 4.12864,-1.87032c1.84566,0 3.79141,1.14728 5.45867,3.11914l3.78706,-3.63187c-2.46935,-3.21342 -5.61895,-4.7088 -9.37772,-4.7088c-3.1467,0 -5.8735,1.14583 -8.10498,3.40487c-2.2206,2.24235 -3.34613,5.09897 -3.34613,8.48861c0,3.39037 1.12481,6.25351 3.34251,8.51109c2.21987,2.25977 4.94812,3.40633 8.1086,3.40633c4.14821,0 7.49652,-1.79128 9.7541,-5.07214l-3.72541,-3.57965zm23.51646,-11.44675c-0.81223,-1.13278 -1.91891,-2.04365 -3.28956,-2.71012c-1.36703,-0.66502 -2.96032,-1.00224 -4.73491,-1.00224c-3.19819,0 -5.81548,1.17992 -7.78081,3.5093c-1.90731,2.31125 -2.87329,5.18382 -2.87329,8.53938c0,3.45056 1.06026,6.30717 3.1525,8.48933c2.07991,2.17129 4.86473,3.27289 8.27612,3.27289c3.86394,0 7.03456,-1.56284 9.42342,-4.64499l0.12908,-0.16607l-3.73774,-3.59198c-0.34665,0.41772 -0.83762,0.89201 -1.2858,1.31409c-0.56567,0.53375 -1.09725,0.94712 -1.66582,1.22995c-0.85647,0.42643 -1.81665,0.63674 -2.89142,0.63674c-1.58749,0 -2.9023,-0.46704 -3.90744,-1.38806c-0.93988,-0.86155 -1.48959,-2.02334 -1.63536,-3.45853l15.18015,0l0.05149,-2.09152c0,-1.48015 -0.20161,-2.90592 -0.59903,-4.23886c-0.39741,-1.33512 -1.00732,-2.58031 -1.81158,-3.69931zm-12.52297,5.36077c0.27559,-1.08927 0.77743,-1.99651 1.49612,-2.70069c0.7767,-0.76438 1.78692,-1.15091 3.00383,-1.15091c1.38878,0 2.46427,0.39451 3.19528,1.17629c0.67808,0.72231 1.06027,1.62158 1.14004,2.67531l-8.83527,0zm34.52737,-6.83875l-0.00072,0c-1.73616,-1.48234 -4.13662,-2.23438 -7.1332,-2.23438c-1.90658,0 -3.68915,0.41844 -5.30202,1.23648c-1.49249,0.7564 -2.95742,2.00957 -3.88787,3.64927l0.05802,0.06962l3.66885,3.51221c1.51134,-2.40916 3.19166,-3.24605 5.41951,-3.24605c1.19733,0 2.19087,0.32126 2.95452,0.95438c0.75929,0.62876 1.12915,1.42866 1.12915,2.44251l0,1.10595c-1.42141,-0.43223 -2.83775,-0.65124 -4.21711,-0.65124c-2.85081,0 -5.17149,0.67082 -6.89459,1.99361c-1.74559,1.33947 -2.63035,3.25548 -2.63035,5.69582c0,2.13937 0.74625,3.87698 2.22278,5.16931c1.48886,1.24592 3.35048,1.87903 5.53264,1.87903c2.18144,0 4.22219,-0.87969 6.07438,-2.3845l0,1.87467l5.64216,0l0,-14.63769c0,-2.77176 -0.88694,-4.93434 -2.63615,-6.429zm-10.17328,12.36559c0.64979,-0.45325 1.56791,-0.6817 2.7297,-0.6817c1.37935,0 2.84211,0.27703 4.34982,0.82384l0,2.23366c-1.24591,1.15744 -2.90882,1.74486 -4.94667,1.74486c-0.99137,0 -1.76227,-0.22046 -2.2924,-0.65632c-0.51997,-0.42642 -0.77307,-0.96888 -0.77307,-1.65638c0,-0.78106 0.30531,-1.37283 0.93262,-1.80796zm34.85154,-11.91886c-1.5962,-1.77822 -3.83855,-2.68111 -6.66688,-2.68111c-2.27282,0 -4.11921,0.65269 -5.50001,1.94066l0,-1.40981l-5.61895,0l0,22.77022l5.7299,0l0,-12.55778c0,-1.72528 0.41047,-3.0952 1.21981,-4.07279c0.80789,-0.97469 1.91819,-1.44897 3.39472,-1.44897c1.29813,0 2.28152,0.42352 3.00746,1.2945c0.72884,0.87533 1.09797,2.08064 1.09797,3.58618l0,13.19886l5.7299,0l0,-13.19886c0,-3.15395 -0.80498,-5.65013 -2.39392,-7.4211z"/>
   </g>
  </g>
  <g stroke="null" id="svg_21">
   <g stroke="null" transform="matrix(0.30674864491813736,0,0,0.30674864491813736,-296.5852365469036,-175.62709500275378) " id="svg_19">
    <path stroke="null" id="svg_20" fill="#430098" d="m2213.52677,1171.02793c13.99552,0 25.37047,11.23151 25.59657,25.1766l0.00343,0.4234l0,233.24444c0,13.99552 -11.23499,25.37048 -25.1767,25.59657l-0.4233,0.00343l-204.8,0c-13.99552,0 -25.37047,-11.23499 -25.59657,-25.1767l-0.00343,-0.4233l0,-233.24444c0,-13.99904 11.235,-25.37054 25.1767,-25.59657l0.4233,-0.00343l204.8,0zm0,14.22222l-204.8,0c-6.174,0 -11.21794,4.94747 -11.37405,11.08465l-0.00373,0.29313l0,233.24444c0,6.174 4.94747,11.21794 11.08465,11.37406l0.29313,0.00372l204.8,0c6.1775,0 11.21805,-4.94747 11.37406,-11.08464l0.00372,-0.29314l0,-233.24444c0,-6.272 -5.10222,-11.37778 -11.37778,-11.37778zm-166.4,170.66667l32,28.44444l-32,28.44445l0,-56.88889zm28.44444,-142.22222l0,80.75022c14.20089,-4.62222 34.05156,-9.63911 53.33334,-9.63911c17.58222,0 28.10666,6.912 33.83822,12.71111c12.1088,12.2496 12.39716,27.82021 12.38102,29.89678l-0.00058,0.05877l0.00356,85.33334l-28.44444,0l0,-84.94222c-0.13867,-6.63823 -3.33867,-14.61334 -17.77778,-14.61334c-28.63168,0 -60.71331,14.25632 -61.66603,14.68289l-0.01931,0.00867l-20.09244,9.10222l0,-123.34933l28.44444,0zm99.55556,0c-1.92,16.15644 -8.46933,31.64444 -21.33333,46.22222l0,0l-28.44445,0c11.17867,-14.66667 18.19734,-30.10133 21.33334,-46.22222l0,0l28.44444,0z"/>
   </g>
  </g>
 </g>
</svg>