<svg width="500" height="314" xmlns="http://www.w3.org/2000/svg" xmlns:xlink="http://www.w3.org/1999/xlink">
 <!-- <defs> -->
 <!-- </defs> -->
 <!-- <text>  
    <textPath xlink:href="#text-path" >SVG text on a linear path</textPath>  
  </text> -->
 <g>
  <title>background</title>
  <rect x="-1" y="-1" width="502" height="316" id="canvas_background" fill="none"/>
 </g>
 <g>
  <title>Layer 1</title>
  <path d="m178.91197,85.25658c-9.76517,-7.67222 -22.01222,-12.21958 -35.32626,-12.21958c-31.33668,0 -56.85138,25.27868 -57.64002,56.78375c-32.35727,12.26623 -55.39009,43.84126 -55.39009,80.82649c0,43.70134 32.12533,79.82374 73.80707,85.51378l0,0.79287l295.27464,0l0,-0.13992c41.17144,-2.42526 73.80706,-36.93859 73.80706,-79.17078c0,-40.73972 -30.36249,-74.29694 -69.44637,-78.79767c0.16237,-2.4719 0.25515,-4.99044 0.25515,-7.50898c0,-63.12674 -52.67626,-114.29043 -117.64596,-114.29043c-48.0836,0 -89.44061,28.03043 -107.69522,68.21047" fill="#fff" id="svg_1" stroke="null"/>
  <metadata id="svg_28">image/svg+xml</metadata>
  <defs>
   <path id="svg_75" d="m0,0l122.522,0l0,122.523l-122.522,0l0,-122.523z"/>
  </defs>
  <clipPath id="svg_74">
   <use xlink:href="#svg_75" id="svg_77" y="296.292557" x="-1.69371"/>
  </clipPath>
  <defs>
   <linearGradient id="svg_7" y2="78.2008538%" x2="79.6388325%" y1="12.0393928%" x1="12.9593594%">
    <stop offset="0%" stop-color="#387EB8"/>
    <stop offset="100%" stop-color="#366994"/>
   </linearGradient>
   <linearGradient id="svg_6" y2="88.4290372%" x2="90.7415328%" y1="20.5791813%" x1="19.127525%">
    <stop offset="0%" stop-color="#FFE052"/>
    <stop offset="100%" stop-color="#FFC331"/>
   </linearGradient>
  </defs>
  <g stroke="null" id="svg_12">
   <g stroke="null" transform="matrix(0.3355357359227572,0,0,0.3355357359227572,-230.31303912517615,-136.7505340728967) " id="svg_9">
    <path stroke="null" id="svg_10" fill="url(#svg_7)" d="m1271.113929,710.852698c-64.83229,0 -60.78374,28.11518 -60.78374,28.11518l0.07227,29.12705l61.86788,0l0,8.74534l-86.44156,0c0,0 -41.48617,-4.70491 -41.48617,60.71147c0,65.41635 36.21005,63.09655 36.21005,63.09655l21.61039,0l0,-30.35573c0,0 -1.16485,-36.21005 35.63185,-36.21005l61.36194,0c0,0 34.47544,0.5573 34.47544,-33.31903l0,-56.01355c0,-0.00001 5.23432,-33.89723 -62.51835,-33.89723l0,0l0,0zm-34.11406,19.58667c6.1554,0 11.13043,4.97503 11.13043,11.13043c0.00001,6.1554 -4.97503,11.13044 -11.13043,11.13044c-6.1554,0 -11.13044,-4.97504 -11.13044,-11.13044c0,-6.1554 4.97504,-11.13043 11.13044,-11.13043l0,0l0,0z"/>
    <path stroke="null" id="svg_11" fill="url(#svg_6)" d="m1272.955159,964.906688c64.8323,0 60.78374,-28.11519 60.78374,-28.11519l-0.07228,-29.12704l-61.86787,0l0,-8.74535l86.44156,0c0,0 41.48617,4.7049 41.48617,-60.71148c0.00002,-65.41635 -36.21005,-63.09655 -36.21005,-63.09655l-21.61039,0l0,30.35572c0,0 1.16487,36.21005 -35.63185,36.21005l-61.36195,0c0,0 -34.47544,-0.55729 -34.47544,33.31906l0,56.01355c0,0 -5.23432,33.89723 62.51836,33.89723l0,0l0,0zm34.11406,-19.58667c-6.1554,0 -11.13043,-4.97504 -11.13043,-11.13044c0,-6.1554 4.97503,-11.13043 11.13043,-11.13043c6.1554,0 11.13044,4.97503 11.13044,11.13043c0.00002,6.1554 -4.97504,11.13044 -11.13044,11.13044l0,0l0,0z"/>
   </g>
  </g>
  <g stroke="null" id="svg_25">
   <g stroke="null" transform="matrix(0.23676371702555096,0,0,0.23676371702555096,-371.9678966475184,-232.0466532179679) " id="svg_16">
    <path stroke="null" id="svg_17" fill="#5382A1" d="m2866.724925,1691.658029c0,0 -13.19843,7.67535 9.39287,10.27259c27.36873,3.12226 41.35657,2.6745 71.51709,-3.03384c0,0 7.92949,4.97199 19.00358,9.27837c-67.61193,28.97734 -153.01911,-1.67842 -99.91354,-16.51712"/>
    <path stroke="null" id="svg_18" fill="#5382A1" d="m2858.463105,1653.844509c0,0 -14.80332,10.95773 7.80474,13.29617c29.23613,3.01615 52.32454,3.26284 92.27637,-4.43019c0,0 5.52587,5.6022 14.21498,8.66583c-81.74685,23.90388 -172.79814,1.88509 -114.29609,-17.53181"/>
    <path stroke="null" id="svg_19" fill="#E76F00" d="m2928.112795,1589.700209c16.65955,19.18046 -4.37714,36.44044 -4.37714,36.44044c0,0 42.30144,-21.83726 22.8743,-49.18272c-18.14435,-25.50132 -32.05864,-38.17193 43.26772,-81.85856c0,0 -118.23755,29.5303 -61.76488,94.60084"/>
    <path stroke="null" id="svg_20" fill="#5382A1" d="m3017.534985,1719.627199c0,0 9.7671,8.04771 -10.75665,14.27363c-39.0265,11.82254 -162.43247,15.39258 -196.71412,0.47104c-12.32338,-5.36111 10.78644,-12.80094 18.05591,-14.36207c7.58132,-1.64399 11.91377,-1.33771 11.91377,-1.33771c-13.70484,-9.65446 -88.58251,18.95703 -38.03415,27.15089c137.85274,22.35578 251.29239,-10.06685 215.53524,-26.19578"/>
    <path stroke="null" id="svg_21" fill="#5382A1" d="m2873.071865,1614.665339c0,0 -62.77213,14.90943 -22.22918,20.3236c17.11849,2.2919 51.24375,1.77339 83.03057,-0.88995c25.97795,-2.19136 52.06296,-6.85056 52.06296,-6.85056c0,0 -9.16015,3.92285 -15.78729,8.448c-63.744,16.76475 -186.88559,8.96559 -151.43471,-8.18269c29.98086,-14.49239 54.35765,-12.8484 54.35765,-12.8484"/>
    <path stroke="null" id="svg_22" fill="#5382A1" d="m2985.677415,1677.607819c64.79872,-33.67191 34.83835,-66.03031 13.9264,-61.67086c-5.12558,1.06682 -7.41096,1.99121 -7.41096,1.99121c0,0 1.90278,-2.98077 5.53704,-4.27101c41.37053,-14.54452 73.18714,42.89722 -13.35482,65.64771c0,0.00093 1.00259,-0.89553 1.30234,-1.69705"/>
    <path stroke="null" id="svg_23" fill="#E76F00" d="m2946.609955,1424.556939c0,0 35.88655,35.89865 -34.03683,91.10063c-56.07144,44.28148 -12.78603,69.5296 -0.02327,98.37661c-32.72983,-29.5303 -56.74915,-55.52594 -40.63511,-79.72026c23.65161,-35.51512 89.17457,-52.73414 74.69521,-109.75698"/>
    <path stroke="null" id="svg_24" fill="#5382A1" d="m2879.439285,1768.850879c62.19869,3.98149 157.71182,-2.20905 159.97393,-31.63974c0,0 -4.34828,11.15694 -51.40387,20.01734c-53.08788,9.99051 -118.5643,8.82408 -157.39904,2.42129c0.00093,-0.00093 7.94996,6.57967 48.82898,9.20111"/>
   </g>
  </g>
  <g stroke="null" id="svg_34">
   <g stroke="null" transform="matrix(0.29223458817621684,0,0,0.29223458817621684,-282.6460336490054,-167.31322584357258) " id="svg_30">
    <path stroke="null" id="svg_31" fill="#A9B9CB" d="m1976.317127,1314.142926c-0.002,-4.843 -1.037,-9.122 -3.129,-12.794c-2.055,-3.612 -5.134,-6.638 -9.262,-9.032c-34.081,-19.67 -68.195,-39.28 -102.264,-58.97c-9.185,-5.307 -18.091,-5.114 -27.208,0.27c-13.565,8.008 -81.481,46.956 -101.719,58.689c-8.334,4.83 -12.39,12.221 -12.392,21.828c-0.013,39.558 0,79.114 -0.013,118.673c0.002,4.736 0.993,8.932 2.993,12.55c2.056,3.72 5.177,6.83 9.401,9.278c20.239,11.733 88.164,50.678 101.726,58.688c9.121,5.387 18.027,5.579 27.215,0.27c34.07,-19.691 68.186,-39.3 102.272,-58.97c4.224,-2.447 7.345,-5.559 9.401,-9.276c1.997,-3.618 2.99,-7.814 2.992,-12.551c0,0 0,-79.094 -0.013,-118.653"/>
    <path stroke="null" id="svg_32" fill="#7F8B99" d="m1861.431127,1233.604926c-9.17,-5.294 -18.061,-5.101 -27.163,0.269c-13.543,7.987 -81.348,46.834 -101.553,58.537c-8.321,4.817 -12.37,12.189 -12.372,21.771c-0.013,39.455 0,78.909 -0.013,118.365c0.002,4.724 0.991,8.909 2.988,12.517c2.053,3.711 5.169,6.813 9.386,9.254c4.629,2.681 11.759,6.788 20.159,11.62l187.092,-187.092c-26.178,-15.074 -52.363,-30.136 -78.524,-45.241"/>
    <path stroke="null" id="svg_33" fill="#FFFFFF" d="m1874.786127,1355.438926l39.839,0.281c0,-16.599 -16.802,-57.249 -64.973,-57.249c-30.691,0 -71.951,19.512 -71.951,75.61c0,56.097 40.447,74.39 71.951,74.39c51.017,0 63.21,-35.302 63.21,-55.252l-38.007,-2.173c0,0 1.017,23.075 -25.406,23.075c-24.39,0 -28.46,-29.878 -28.46,-40.04c0,-15.447 5.493,-40.244 28.46,-40.244c22.968,0 25.337,21.602 25.337,21.602"/>
   </g>
  </g>
  <defs>
   <radialGradient gradientUnits="userSpaceOnUse" gradientTransform="matrix(0.463 0 0 0.463 76.4644 81.9182)" r="363.0565" cy="-125.811" cx="0.8366" id="svg_38">
    <stop stop-color="#FFFFFF" offset="0"/>
    <stop stop-color="#4C6B97" offset="0.5"/>
    <stop stop-color="#231F20" offset="1"/>
   </radialGradient>
  </defs>
  <g stroke="null" id="svg_50">
   <g stroke="null" transform="matrix(0.42497424579134124,0,0,0.42497424579134124,-352.5735068691574,-224.78937773867074) " id="svg_40">
    <ellipse stroke="null" id="svg_41" ry="67.3" rx="128" cy="1111.438958" cx="1130.829765" fill="url(#svg_38)"/>
    <ellipse stroke="null" id="svg_42" ry="62.3" rx="123" cy="1111.438958" cx="1130.829765" fill="#6181B6"/>
    <g stroke="null" id="svg_43">
     <path stroke="null" id="svg_44" d="m1155.729765,1131.638958c0,0 6.1,-31.4 6.1,-31.4c1.4,-7.1 0.2,-12.4 -3.4,-15.7c-3.5,-3.2 -9.5,-4.8 -18.3,-4.8l-10.6,0l3,-15.6c0.1,-0.6 0,-1.2 -0.4,-1.7c-0.4,-0.5 -0.9,-0.7 -1.5,-0.7l-14.6,0c-1,0 -1.8,0.7 -2,1.6l-6.5,33.3c-0.6,-3.8 -2,-7 -4.4,-9.6c-4.3,-4.9 -11,-7.4 -20.1,-7.4l-28.1,0c-1,0 -1.8,0.7 -2,1.6l-13.1,67.6c-0.1,0.6 0,1.2 0.4,1.7c0.4,0.5 0.9,0.7 1.5,0.7l14.7,0c1,0 1.8,-0.7 2,-1.6l3.2,-16.3l10.9,0c5.7,0 10.6,-0.6 14.3,-1.8c3.9,-1.3 7.4,-3.4 10.5,-6.3c2.5,-2.3 4.6,-4.9 6.2,-7.7l-2.6,13.5c-0.1,0.6 0,1.2 0.4,1.7s0.9,0.7 1.5,0.7l14.6,0c1,0 1.8,-0.7 2,-1.6l7.2,-37l10,0c4.3,0 5.5,0.8 5.9,1.2c0.3,0.3 0.9,1.5 0.2,5.2l-5.8,29.9c-0.1,0.6 0,1.2 0.4,1.7c0.4,0.5 0.9,0.7 1.5,0.7l15,0c0.9,-0.3 1.7,-1 1.9,-1.9zm-67.6,-26c-0.9,4.7 -2.6,8.1 -5.1,10c-2.5,1.9 -6.6,2.9 -12,2.9l-6.5,0l4.7,-24.2l8.4,0c6.2,0 8.7,1.3 9.7,2.4c1.3,1.6 1.6,4.7 0.8,8.9z" fill="#FFFFFF"/>
     <path stroke="null" id="svg_45" d="m1218.129765,1087.038958c-4.3,-4.9 -11,-7.4 -20.1,-7.4l-28.3,0c-1,0 -1.8,0.7 -2,1.6l-13.1,67.5c-0.1,0.6 0,1.2 0.4,1.7c0.4,0.5 0.9,0.7 1.5,0.7l14.7,0c1,0 1.8,-0.7 2,-1.6l3.2,-16.3l10.9,0c5.7,0 10.6,-0.6 14.3,-1.8c3.9,-1.3 7.4,-3.4 10.5,-6.3c2.6,-2.4 4.8,-5.1 6.4,-8c1.6,-2.9 2.8,-6.1 3.5,-9.6c1.7,-8.7 0.4,-15.5 -3.9,-20.5zm-15.3,18.6c-0.9,4.7 -2.6,8.1 -5.1,10c-2.5,1.9 -6.6,2.9 -12,2.9l-6.5,0l4.7,-24.2l8.4,0c6.2,0 8.7,1.3 9.7,2.4c1.4,1.6 1.7,4.7 0.8,8.9z" fill="#FFFFFF"/>
    </g>
    <g stroke="null" id="svg_46">
     <path stroke="null" id="svg_47" d="m1077.629765,1092.338958c5.6,0 9.3,1 11.2,3.1c1.9,2.1 2.3,5.6 1.3,10.6c-1,5.2 -3,9 -5.9,11.2c-2.9,2.2 -7.3,3.3 -13.2,3.3l-8.9,0l5.5,-28.2l10,0zm-35.8,56.8l14.7,0l3.5,-17.9l12.6,0c5.6,0 10.1,-0.6 13.7,-1.8c3.6,-1.2 6.8,-3.1 9.8,-5.9c2.5,-2.3 4.5,-4.8 6,-7.5c1.5,-2.7 2.6,-5.7 3.2,-9c1.6,-8 0.4,-14.2 -3.5,-18.7c-3.9,-4.5 -10.1,-6.7 -18.6,-6.7l-28.3,0l-13.1,67.5z" fill="#000004"/>
     <path stroke="null" id="svg_48" d="m1116.129765,1063.738958l14.6,0l-3.5,17.9l13,0c8.2,0 13.8,1.4 16.9,4.3c3.1,2.9 4,7.5 2.8,13.9l-6.1,31.4l-14.8,0l5.8,-29.9c0.7,-3.4 0.4,-5.7 -0.7,-6.9c-1.1,-1.2 -3.6,-1.9 -7.3,-1.9l-11.7,0l-7.5,38.7l-14.6,0l13.1,-67.5z" fill="#000004"/>
     <path stroke="null" id="svg_49" d="m1192.329765,1092.338958c5.6,0 9.3,1 11.2,3.1c1.9,2.1 2.3,5.6 1.3,10.6c-1,5.2 -3,9 -5.9,11.2c-2.9,2.2 -7.3,3.3 -13.2,3.3l-8.9,0l5.5,-28.2l10,0zm-35.8,56.8l14.7,0l3.5,-17.9l12.6,0c5.6,0 10.1,-0.6 13.7,-1.8c3.6,-1.2 6.8,-3.1 9.8,-5.9c2.5,-2.3 4.5,-4.8 6,-7.5c1.5,-2.7 2.6,-5.7 3.2,-9c1.6,-8 0.4,-14.2 -3.5,-18.7c-3.9,-4.5 -10.1,-6.7 -18.6,-6.7l-28.3,0l-13.1,67.5z" fill="#000004"/>
    </g>
   </g>
  </g>
  <defs>
   <linearGradient y2="100%" x1="50%" x2="50%" id="svg_54">
    <stop offset="0" stop-color="#F88A36"/>
    <stop offset="1" stop-color="#FD2020"/>
   </linearGradient>
  </defs>
  <g stroke="null" id="svg_57">
   <path stroke="null" id="svg_56" fill="url(#svg_54)" d="m387.68487,270.857263c-10.045031,5.802744 -23.85668,6.398945 -37.752271,0.443385c-11.250995,-4.786833 -20.586395,-13.165943 -26.570798,-22.739609c2.87253,2.393417 6.223744,4.309011 9.814299,5.983541c14.350168,6.726103 28.697322,6.2655 38.79401,0.017219c-0.006457,-0.006457 -0.010762,-0.010762 -0.015066,-0.017219c-14.362651,-11.011438 -26.570798,-25.374089 -35.666641,-37.102261c-1.915809,-1.915164 -3.352075,-4.309011 -4.78834,-6.463301c11.011223,10.053641 28.486392,22.739609 34.708844,26.331886c-13.163791,-13.884829 -24.894115,-31.118719 -24.416292,-30.640897c20.826167,21.065079 40.216716,33.034314 40.216716,33.034314c0.641401,0.361595 1.136442,0.662925 1.534628,0.931969c0.419709,-1.067567 0.787761,-2.176029 1.0977,-3.325385c3.351214,-12.208146 -0.477822,-26.092975 -8.856933,-37.582235c19.388396,11.729248 30.879808,33.751047 26.090823,52.183798c-0.124836,0.497194 -0.260435,0.98793 -0.406795,1.470057c0.055961,0.066723 0.111922,0.135598 0.167884,0.206626c9.573666,11.969235 6.941338,24.655203 5.74463,22.261787c-5.193628,-10.163411 -14.808189,-7.055413 -19.696182,-4.993459l-0.000215,-0.000215z"/>
  </g>
 </g>
</svg>